<svg id="Layer_1" data-name="Layer 1" xmlns="http://www.w3.org/2000/svg" width="1080" height="1080" viewBox="0 0 1080 1080">
  <defs>
    <style>
      .cls-1 {
        fill: #ebebeb;
      }

      .cls-2 {
        fill: #e0e0e0;
      }

      .cls-3 {
        fill: #f5f5f5;
      }

      .cls-4 {
        fill: #fafafa;
      }

      .cls-5 {
        fill: #fd8f1f;
      }

      .cls-6 {
        fill: #13548d;
      }

      .cls-7 {
        fill: #ff8b7b;
      }

      .cls-11, .cls-8 {
        opacity: 0.2;
      }

      .cls-11, .cls-13, .cls-8 {
        isolation: isolate;
      }

      .cls-9 {
        fill: #263238;
      }

      .cls-10, .cls-11 {
        fill: #fff;
      }

      .cls-12 {
        fill: #ff5652;
      }

      .cls-13 {
        opacity: 0.3;
      }
    </style>
  </defs>
  <title>401-unatherized-01</title>
  <g>
    <rect class="cls-1" x="20" y="848.59" width="1040" height="0.52"/>
    <rect class="cls-1" x="183.36" y="866.04" width="68.89" height="0.52"/>
    <rect class="cls-1" x="297.33" y="881.03" width="62.75" height="0.52"/>
    <rect class="cls-1" x="138.25" y="885.34" width="79.56" height="0.52"/>
    <rect class="cls-1" x="922.72" y="884.22" width="33.07" height="0.52"/>
    <rect class="cls-1" x="834.26" y="884.22" width="81.79" height="0.52"/>
    <rect class="cls-1" x="540" y="865.77" width="63.09" height="0.52"/>
    <rect class="cls-1" x="612.11" y="865.77" width="149.97" height="0.52"/>
    <path class="cls-1" d="M513,755.82H111.33a11.88,11.88,0,0,1-11.85-11.88V179.37a11.87,11.87,0,0,1,11.85-11.78H513a11.88,11.88,0,0,1,11.88,11.88h0V743.94A11.88,11.88,0,0,1,513,755.82ZM111.33,168A11.35,11.35,0,0,0,100,179.37V743.94a11.37,11.37,0,0,0,11.33,11.36H513a11.38,11.38,0,0,0,11.36-11.36V179.37A11.38,11.38,0,0,0,513,168Z"/>
    <path class="cls-1" d="M962.88,755.82H561.24a11.89,11.89,0,0,1-11.88-11.88V179.37a11.9,11.9,0,0,1,11.88-11.78H962.88a11.87,11.87,0,0,1,11.84,11.78V743.94A11.9,11.9,0,0,1,962.88,755.82ZM561.24,168a11.38,11.38,0,0,0-11.36,11.36V743.94a11.38,11.38,0,0,0,11.36,11.36H962.88a11.38,11.38,0,0,0,11.36-11.36V179.37A11.38,11.38,0,0,0,962.88,168Z"/>
    <rect class="cls-1" x="542.47" y="652.66" width="415.31" height="45.07" transform="translate(-257.73 728.18) rotate(-45)"/>
    <polygon class="cls-2" points="772.81 684.37 740.95 652.48 697.5 695.94 726.72 742.55 772.81 684.37"/>
    <rect class="cls-2" x="563.72" y="688.94" width="415.31" height="15.02" transform="translate(-266.53 749.43) rotate(-45)"/>
    <rect class="cls-1" x="727.6" y="478.15" width="45.07" height="415.31" transform="translate(-265.23 731.29) rotate(-45)"/>
    <rect class="cls-2" x="763.87" y="456.91" width="15.02" height="415.31" transform="translate(-243.98 740.09) rotate(-45)"/>
    <rect class="cls-1" x="98.2" y="696.1" width="323.23" height="35.09" transform="translate(-428.53 392.74) rotate(-45)"/>
    <polygon class="cls-2" points="277.46 720.77 252.65 695.98 218.85 729.8 241.58 766.05 277.46 720.77"/>
    <rect class="cls-2" x="114.72" y="724.34" width="323.23" height="11.69" transform="translate(-435.38 409.27) rotate(-45)"/>
    <rect class="cls-1" x="242.28" y="560.3" width="35.09" height="323.23" transform="translate(-434.37 395.17) rotate(-45)"/>
    <rect class="cls-2" x="270.48" y="543.75" width="11.69" height="323.23" transform="translate(-417.83 401.99) rotate(-45)"/>
    <rect class="cls-3" x="646.62" y="625.42" width="36.63" height="223.14"/>
    <polygon class="cls-1" points="683.25 718.15 646.62 718.15 646.62 744.92 683.25 737.02 683.25 718.15"/>
    <rect class="cls-1" x="683.23" y="625.44" width="12.21" height="223.14"/>
    <rect class="cls-3" x="262.92" y="625.42" width="36.63" height="223.14"/>
    <polygon class="cls-1" points="299.53 718.15 262.92 718.15 262.92 744.92 299.53 737.02 299.53 718.15"/>
    <rect class="cls-1" x="299.53" y="625.44" width="12.21" height="223.14"/>
    <rect class="cls-3" x="234.99" y="658.14" width="467.48" height="68.68"/>
    <rect class="cls-1" x="702.47" y="658.12" width="6.86" height="68.68"/>
    <polygon class="cls-4" points="524.88 588.11 433.48 588.11 368.86 652.73 368.86 744.13 433.48 808.75 524.88 808.75 589.5 744.13 589.5 652.73 524.88 588.11"/>
    <polygon class="cls-2" points="520.7 598.2 437.66 598.2 378.95 656.91 378.95 739.95 437.66 798.67 520.7 798.67 579.42 739.95 579.42 656.91 520.7 598.2"/>
    <path class="cls-5" d="M399,708l11.68-1a16.47,16.47,0,0,0,1.54,6.24,6,6,0,0,0,5.43,3.43,4.88,4.88,0,0,0,4.16-1.75,6.55,6.55,0,0,0,.07-8.11,13.46,13.46,0,0,0-6.24-3.28,23.61,23.61,0,0,1-11.53-6.87,16.61,16.61,0,0,1-3.51-11,19.42,19.42,0,0,1,1.77-8.32,13.78,13.78,0,0,1,5.34-6.09,18.33,18.33,0,0,1,9.78-2.23,15.71,15.71,0,0,1,11.63,4c2.66,2.68,4.16,7,4.76,12.83l-11.59,1a10.77,10.77,0,0,0-1.93-5.58,5.14,5.14,0,0,0-4.16-1.72,4,4,0,0,0-3.2,1.31,4.73,4.73,0,0,0-1.08,3.14,3.62,3.62,0,0,0,.9,2.43,8.43,8.43,0,0,0,4.16,2.08,41,41,0,0,1,11.54,5,14.81,14.81,0,0,1,5.08,6.24,21.19,21.19,0,0,1,1.58,8.32,23.43,23.43,0,0,1-2.08,10,15.85,15.85,0,0,1-5.93,7,17.72,17.72,0,0,1-9.57,2.37q-10.12,0-14-5.58A26.51,26.51,0,0,1,399,708Z"/>
    <path class="cls-5" d="M438.43,670.12h37.44v14H463.39V726.7H451.1V684.12H438.62Z"/>
    <path class="cls-5" d="M477.89,698.47q0-13.85,5.43-21.59a18.92,18.92,0,0,1,30.41-.12q5.47,7.59,5.47,21.23a47.38,47.38,0,0,1-2.35,16.29,22,22,0,0,1-6.78,9.88A17.25,17.25,0,0,1,499,727.7a19.11,19.11,0,0,1-11.12-3.06,21.14,21.14,0,0,1-7.16-9.65A43.52,43.52,0,0,1,477.89,698.47Zm12.29,0q0,8.6,2.25,12.32a6.89,6.89,0,0,0,12.21,0c1.46-2.46,2.08-6.85,2.08-13.17a23.24,23.24,0,0,0-2.25-11.69,6.94,6.94,0,0,0-6.24-3.68,6.77,6.77,0,0,0-6,3.74q-2.07,3.91-2.08,12.57Z"/>
    <path class="cls-5" d="M525.67,670.12h20.42a11.66,11.66,0,0,1,10,4.54,21.49,21.49,0,0,1,3.31,12.85,21.88,21.88,0,0,1-3.62,13.4,12.9,12.9,0,0,1-11,4.82H538v21H525.59Zm12.25,24.15h3a6.12,6.12,0,0,0,5-1.77,6.86,6.86,0,0,0,1.43-4.49,7.93,7.93,0,0,0-1.12-4.58,5.26,5.26,0,0,0-4.68-1.85h-3.64Z"/>
    <path class="cls-3" d="M533.51,353.34c-3.83-25.4-24.07-43.1-53.66-43.1-24.28,0-49.26,11.88-67.85,30.14h0a28.52,28.52,0,0,0-19.6-7c-20.51,0-42.08,16.64-48.13,37.17a37.28,37.28,0,0,0-1.52,9.32h0l-.41.27c-17,11.58-8.59,38.29,12,38.29H527.52a32.74,32.74,0,0,0,31.49-23v-.25C565.63,373.37,554.25,355.38,533.51,353.34Z"/>
    <g id="freepik--Shadow--inject-2">
      <ellipse id="freepik--path--inject-2" class="cls-3" cx="540" cy="918.97" rx="403.29" ry="23.55"/>
    </g>
    <g id="freepik--error-401--inject-2">
      <path class="cls-6" d="M287.78,321.35H183.36V274.21L287.78,150.1H337.7V277h25.9v44.47H337.74V360H287.82Zm0-44.47V212l-55.16,64.92Z"/>
      <path class="cls-6" d="M779,150.1V359.91H721V222.42a176.44,176.44,0,0,1-27,17.31,213,213,0,0,1-33,12.67v-47q29.26-9.47,45.45-22.67a92.4,92.4,0,0,0,25.33-32.64Z"/>
    </g>
    <g id="freepik--Character--inject-2">
      <path class="cls-7" d="M668.59,413.43c-.92,1.64-1.63,2.83-2.44,4.16s-1.62,2.58-2.43,3.87c-1.64,2.54-3.39,5-5.16,7.44a173,173,0,0,1-11.46,14.17,136.33,136.33,0,0,1-13.33,13,96.47,96.47,0,0,1-16,11.19,38.76,38.76,0,0,1-5.59,2.68A35.73,35.73,0,0,1,606,471.7a46.16,46.16,0,0,1-11.5.54,71,71,0,0,1-19.43-4.54,116.23,116.23,0,0,1-16.64-7.91,120.43,120.43,0,0,1-15-10.11,7.28,7.28,0,0,1,7.12-12.48l.37.15a183.11,183.11,0,0,0,30.22,9.17A56.57,56.57,0,0,0,595,447.7a19.7,19.7,0,0,0,5.32-1,10.48,10.48,0,0,0,1.85-.81c.58-.33.69-.44,1.87-1.25a110.55,110.55,0,0,0,21.24-20.49c3.27-4,6.45-8.13,9.46-12.48,1.54-2.08,3-4.3,4.48-6.47L641.3,402l2-3.06.33-.52a14.58,14.58,0,0,1,25,15Z"/>
      <path class="cls-7" d="M554,439l-16-10.57-6.76,21.22a20.11,20.11,0,0,0,20.5-1Z"/>
      <path class="cls-7" d="M523.36,431.57l-1.25,6.76a6.45,6.45,0,0,0,2.54,6.4l6.59,4.87L538,428.38l-6.4-1.87a6.52,6.52,0,0,0-8.09,4.41C523.45,431.13,523.4,431.35,523.36,431.57Z"/>
      <path class="cls-6" d="M669.08,379.63c-16.24,2.56-32.67,21.63-42.55,39.41a63.18,63.18,0,0,0,28.14,25.84s19.26-18.22,27-31.7S684.37,377.2,669.08,379.63Z"/>
      <path class="cls-8" d="M669.08,379.63c-16.24,2.56-32.67,21.63-42.55,39.41a63.18,63.18,0,0,0,28.14,25.84s19.26-18.22,27-31.7S684.37,377.2,669.08,379.63Z"/>
      <path class="cls-9" d="M627.15,415a18.5,18.5,0,0,0-3.47,5.8c4.05,6.24,13.68,22.88,31.66,26.42a8.35,8.35,0,0,0,3.76-4.43S638.43,432.56,627.15,415Z"/>
      <path class="cls-6" d="M734.54,379.07a217.46,217.46,0,0,0-59.42-1.71c-14.77,1.89-25.8,15.48-25.69,30.35A273,273,0,0,0,653.59,454c-5.43,28.6-7.39,67.47-1.67,76l102.32,1.44c4.39-12.23-1.12-65.17,4.72-120.43A29.23,29.23,0,0,0,734.54,379.07Z"/>
      <path class="cls-8" d="M696,530.16c-5.84-46,0-123,0-123.8l2.08.16c0,.77-5.8,77.55,0,123.37Z"/>
      <path class="cls-9" d="M684.87,378.8c3.52-1.31,2.21-3.27,2.21-3.27s-16,0-27,3c-1.69,1.78.12,4.16.12,4.16S674.41,382.7,684.87,378.8Z"/>
      <path class="cls-8" d="M691.4,375.59s-6.59,12.19,2.23,23.28c-7,0-11.5,11.92-11.5,11.92s-13.65-19,3.8-34.14C686.91,375.14,691.4,375.59,691.4,375.59Z"/>
      <path class="cls-10" d="M684.35,381.5C682.65,389,697.64,403,697.64,403s26.52-12.82,28.21-20.16Z"/>
      <path class="cls-8" d="M744.21,425.08c-2.82,5.45.94,29.12,11.86,39.12.13-9.77.42-20.15,1-30.82Z"/>
      <path class="cls-7" d="M720.32,338.7l-27.38,18c3.25,7.95,4.77,16.23-4.59,20.06a6.48,6.48,0,0,0,0,12,31.42,31.42,0,0,0,8.57,1.81,51.37,51.37,0,0,0,25.75-4.16,6.56,6.56,0,0,0,2.93-8.79,6,6,0,0,0-.6-.92C717.86,366.52,718.73,348.89,720.32,338.7Z"/>
      <path class="cls-8" d="M709.17,346,693,356.62a36,36,0,0,1,2.08,6.74c6.47-.37,14.92-5.49,15.08-10.83A15.32,15.32,0,0,0,709.17,346Z"/>
      <path class="cls-9" d="M689.93,304.4c7-.15,8.86,9.85,6.24,13.24,5.28,1.15,7.84,7.33,6.24,10.4s-7.72,6.56-13.17,5.18c-9.34-2.33-10.94-10.08-8.32-13.62C675.93,315.48,678.47,302.79,689.93,304.4Z"/>
      <path class="cls-11" d="M689.93,304.4c7-.15,8.86,9.85,6.24,13.24,5.28,1.15,7.84,7.33,6.24,10.4s-7.72,6.56-13.17,5.18c-9.34-2.33-10.94-10.08-8.32-13.62C675.93,315.48,678.47,302.79,689.93,304.4Z"/>
      <path class="cls-7" d="M729.28,320.89c-2.08,16.41-2.48,26.12-11.36,34-13.37,11.79-33.28,2.72-36.11-14-2.57-15.08,1.27-39.4,17.85-44.76a22.88,22.88,0,0,1,29.62,24.81Z"/>
      <path class="cls-9" d="M727.3,333.43c-7,0-8.5-10.15-5.84-13.43-5.24-1.36-7.57-7.62-6-10.7s7.93-6.24,13.33-4.72c9.26,2.66,10.61,10.4,7.93,13.92C741.76,322.87,738.7,335.39,727.3,333.43Z"/>
      <path class="cls-11" d="M727.3,333.43c-7,0-8.5-10.15-5.84-13.43-5.24-1.36-7.57-7.62-6-10.7s7.93-6.24,13.33-4.72c9.26,2.66,10.61,10.4,7.93,13.92C741.76,322.87,738.7,335.39,727.3,333.43Z"/>
      <path class="cls-8" d="M710.56,323.59a6.61,6.61,0,0,1,5,.65A13.06,13.06,0,0,1,710.56,323.59Z"/>
      <path class="cls-8" d="M710.56,324.7a5.43,5.43,0,0,1,4.26,1.7A11,11,0,0,1,710.56,324.7Z"/>
      <path class="cls-8" d="M684.5,322.32a1.65,1.65,0,0,0-2.25.58V323A3.09,3.09,0,0,0,684.5,322.32Z"/>
      <path class="cls-8" d="M684.52,323.59s-1.27-.18-1.94,1.71A4.52,4.52,0,0,0,684.52,323.59Z"/>
      <path class="cls-7" d="M734.23,337.61a15.54,15.54,0,0,1-8.78,7.24c-4.74,1.37-6.63-3.37-4.93-8.32,1.56-4.43,5.87-10.5,10.4-9.69S736.73,333.22,734.23,337.61Z"/>
      <path class="cls-9" d="M707.23,323.59c0,1.33-.85,2.37-1.75,2.31s-1.51-1.2-1.41-2.56.85-2.37,1.75-2.3S707.34,322.28,707.23,323.59Z"/>
      <path class="cls-9" d="M700.58,348c-1.71.34-3.27-.33-3.48-1.45s1-2.29,2.75-2.62,3.26.33,3.47,1.45S702.24,347.7,700.58,348Z"/>
      <path class="cls-9" d="M689,322.16c0,1.33-.87,2.37-1.75,2.31s-1.53-1.21-1.43-2.56.87-2.37,1.75-2.31S689.12,320.81,689,322.16Z"/>
      <path class="cls-9" d="M693.17,335.55c-9.73.67-11.61,5.41-9.9,7.49s5.87,0,5.87,0,7.88,1.69,10.19-.83c3.72,1.58,9.4-1.37,7.8-3.62S701.51,335,693.17,335.55Z"/>
      <path class="cls-11" d="M693.17,335.55c-9.73.67-11.61,5.41-9.9,7.49s5.87,0,5.87,0,7.88,1.69,10.19-.83c3.72,1.58,9.4-1.37,7.8-3.62S701.51,335,693.17,335.55Z"/>
      <path class="cls-12" d="M693.46,323.59a47.53,47.53,0,0,1-7.17,11,7.85,7.85,0,0,0,6.34,1.68Z"/>
      <path class="cls-9" d="M710.16,316.6a.89.89,0,0,0,.38-.12.79.79,0,0,0,.24-1.08h0a7.87,7.87,0,0,0-6.24-3.73.8.8,0,0,0,0,1.59h0a6.24,6.24,0,0,1,4.89,3A.76.76,0,0,0,710.16,316.6Z"/>
      <path class="cls-9" d="M683.06,315a.81.81,0,0,0,.67-.35,6.24,6.24,0,0,1,4.91-2.87.79.79,0,0,0,0-1.58,7.78,7.78,0,0,0-6.24,3.58.77.77,0,0,0,.19,1.06h0A.62.62,0,0,0,683.06,315Z"/>
      <path class="cls-9" d="M709.92,699.7c4.65-75.05,3.61-152.05-4.48-168.82l-53.56-.81s6.68,125.47,8.76,175.45c2.18,52,6.84,187.2,6.84,187.2l31,.38S716.65,757.7,709.92,699.7Z"/>
      <path class="cls-8" d="M712.22,585c-18.28,20-9.73,75.25-1.76,105.7C712.64,652.57,713.22,614.7,712.22,585Z"/>
      <path class="cls-9" d="M698.08,897l-27.25-.36a7.58,7.58,0,0,0-4.82,1.44c-7.91,6.24-13.92,6.43-22.88,8-10.76,1.93-5.43,12.75,2.49,12.87,13.11.21,12-.27,23.19-.1l7.74.1,3.5-3.55,3.1,3.55h14.31a2.62,2.62,0,0,0,2.67-2.56V916Z"/>
      <path class="cls-6" d="M700.16,899.75c-.48,0-35.76-1.12-35.76-1.12L663,886l39.12.88Z"/>
      <path class="cls-9" d="M772.81,699.7c-5.74-75.05-8.17-151.43-18.57-168.19l-64.58-.83s25.68,124.8,34.71,174.84C733.75,757.48,759,892.7,759,892.7l31.06.38S787.52,757.7,772.81,699.7Z"/>
      <path class="cls-9" d="M791.53,897l-27.26-.36a7.53,7.53,0,0,0-4.81,1.44c-7.9,6.24-4.28,6.43-13.25,8-10.75,1.93-5.45,12.75,2.48,12.87,13.1.21,12-.27,23.19-.1l12.15.1,1.6-3.55,2.08,3.55h3.2a2.61,2.61,0,0,0,2.61-2.61V916Z"/>
      <path class="cls-6" d="M793.59,899.75c-.5,0-35.92-1.12-35.92-1.12l-3.43-12.75,39.25.87Z"/>
      <path class="cls-6" d="M692.48,374.12s-7.67,13.66,1.15,24.75c-7,0-11.57,7.57-11.57,7.57s-9.29-18.72,4.46-31.2C687.47,373.83,692.48,374.12,692.48,374.12Z"/>
      <path class="cls-9" d="M757,537.17c-36.55,1.52-78.46,2-104.67,0a.94.94,0,0,1-.73-.4,16.56,16.56,0,0,1-2.26-9.65,1,1,0,0,1,1-.89c34.59.93,69,.89,105.13,0a1,1,0,0,1,.93.6,21.61,21.61,0,0,1,1.54,9.44A1,1,0,0,1,757,537.17Z"/>
      <path class="cls-8" d="M757,537.17c-36.55,1.52-78.46,2-104.67,0a.94.94,0,0,1-.73-.4,16.56,16.56,0,0,1-2.26-9.65,1,1,0,0,1,1-.89c34.59.93,69,.89,105.13,0a1,1,0,0,1,.93.6,21.61,21.61,0,0,1,1.54,9.44A1,1,0,0,1,757,537.17Z"/>
      <path class="cls-10" d="M685.6,525.64a39.83,39.83,0,0,0,1.1,13.71c7.93,1.23,24.19.31,24.19.31a78.69,78.69,0,0,0-.5-13.81C697.91,525.35,685.6,525.64,685.6,525.64Z"/>
      <path class="cls-7" d="M758.67,400l1.19,1.06.93.88,1.77,1.7c1.14,1.12,2.18,2.25,3.24,3.39,2.08,2.27,4.06,4.62,5.93,7a160.43,160.43,0,0,1,10.4,14.7,187.47,187.47,0,0,1,15.67,31.69c.56,1.48,1,2.38,1.78,4.89a35.94,35.94,0,0,1,1.34,6.24,48.18,48.18,0,0,1-.15,11.13,77.82,77.82,0,0,1-5,18.53,129,129,0,0,1-17.5,30.6,7.28,7.28,0,0,1-12.62-6.84l.12-.36a228.66,228.66,0,0,0,8.8-29.93,65,65,0,0,0,1.58-13.83,21.48,21.48,0,0,0-.66-5.35,21,21,0,0,0-2.08-4.51,226.94,226.94,0,0,0-15.58-26.56c-2.85-4.16-5.89-8.32-9-12.11-1.56-2-3.18-3.8-4.78-5.63L741.64,424l-1.17-1.23-.54-.56-.35-.34a14.57,14.57,0,0,1,19.11-22h0Z"/>
      <path class="cls-6" d="M740.74,382c16.2,2.81,32.34,22.11,42,40a63.21,63.21,0,0,1-28.48,25.42s-19-18.52-26.6-32.08S725.49,379.32,740.74,382Z"/>
      <path class="cls-9" d="M782.15,417.9a18.53,18.53,0,0,1,3.39,5.87c-4.16,6.24-14,22.73-32,26a8.29,8.29,0,0,1-3.68-4.49S770.63,435.33,782.15,417.9Z"/>
      <path class="cls-9" d="M729,380.5c-3.35-1.43-2.08-3.33-2.08-3.33s15.41.55,26,3.89c1.56,1.86-.27,4.16-.27,4.16S739,384.77,729,380.5Z"/>
      <path class="cls-8" d="M725,376.76s-3.49,12.19-19.46,22.13c7,0,11.66,12.75,11.66,12.75s14.56-17.1,11.19-34C727.39,376.18,725,376.76,725,376.76Z"/>
      <path class="cls-6" d="M724.52,374.55s-4.16,13.19-19,24.34c7,0,11.83,7.55,11.83,7.55s14.31-11.9,11-28.77A14.07,14.07,0,0,0,724.52,374.55Z"/>
      <path class="cls-10" d="M739.49,424.62c-1,18-12.33,22.26-13.93,22.26s-12.48-4.29-11.53-22.26l13-5.12Z"/>
      <path class="cls-7" d="M767.49,523.48l-12.81,11,17,11s10.4-11.4,5.24-17.89Z"/>
      <path class="cls-7" d="M753.24,552l6.6,2.85a5.86,5.86,0,0,0,7.25-2.19l4.58-7.11-17-11-4.43,9.67a5.86,5.86,0,0,0,2.89,7.77h.11Z"/>
      <path class="cls-9" d="M680.82,301c-11.42,1.56-7.6,5.18,17.86,8.43s31.85.68,31.85.68S701.28,300.92,680.82,301Z"/>
      <path class="cls-6" d="M738.41,315S716.05,306,680.82,301c-.44-5.18,3.82-10.67,3.82-10.67s-7.86-3.93-5.43-11.44,13.69-6.53,26.82-12.48c4.8,5.29,18,13.88,27,15,2.22,4.6,8,16.1,17.49,20.53-.15,5-9.53,6.24-9.53,6.24A9.57,9.57,0,0,1,738.41,315Z"/>
      <path class="cls-13" d="M741,308.14c-8.17-7.43-37.21-21-56.37-17.83,0,0-4.26,5.52-3.82,10.67C716,306,738.4,315,738.4,315A9.53,9.53,0,0,0,741,308.14Z"/>
      <path class="cls-10" d="M709.4,281.7c-2.52,12.81-11.26,15.12-12.48,15s-8.72-3.91-6.24-16.64l10-2.79Z"/>
      <path class="cls-9" d="M543.64,491.62a5.21,5.21,0,0,1-5.16-4.58L523.63,366a5.24,5.24,0,1,1,10.28-2,4.06,4.06,0,0,1,.09.7l14.8,121.13a5.18,5.18,0,0,1-4.48,5.8h-.68Z"/>
      <path class="cls-7" d="M540.33,437.16c-1.27-4.66,1.13-5.34-1.18-12-1.23-3.51,2.81-6.24,3.3-3.41,1.88,10.3,15.54,16.06,10.8,22.57S541.58,441.82,540.33,437.16Z"/>
      <circle class="cls-6" cx="515.31" cy="255.44" r="117.96"/>
      <circle class="cls-10" cx="515.28" cy="255.42" r="95.26"/>
      <path class="cls-5" d="M577.17,239.33c-7.82-10.56-22.88,0-27.39,11.11a30.06,30.06,0,0,0-2.4,8.67l-5-33.92L538.45,193a10.71,10.71,0,0,0-21.26,2.6l-1-8A10.7,10.7,0,0,0,495,190.24l1.37,11.15a10.7,10.7,0,0,0-11.93-9.31h0a10,10,0,0,0-1.33.24h0a10.75,10.75,0,0,0-8,11.69l1.71,13.92a10.7,10.7,0,0,0-11.9-9.33,12.72,12.72,0,0,0-1.37.26h0a10.7,10.7,0,0,0-8,11.67L459,248.34l2.44,20,3.22,26.18c2.29,18.72,9.59,29.29,20.43,34,16.64,7.3,47.11,7.39,60.8-3.72,12-9.71,19.67-33.11,21.52-47.61S580.35,243.6,577.17,239.33Z"/>
      <rect class="cls-6" x="401.38" y="243.14" width="227.82" height="24.65" transform="translate(-3.31 504.15) rotate(-51.99)"/>
    </g>
    <g id="freepik--error-unauthorized--inject-2">
      <path class="cls-5" d="M187.32,427.76V389.9h27.39v4.41H192.33v11.61h20.94v4.45H192.33v12.88h23.19v4.45Z"/>
      <path class="cls-5" d="M221.86,427.76V400.32H226v4.16a11.6,11.6,0,0,1,3-3.84,5,5,0,0,1,3-.94,9.08,9.08,0,0,1,4.79,1.52l-1.61,4.3a6.61,6.61,0,0,0-3.41-1,4.25,4.25,0,0,0-2.72.91A5,5,0,0,0,227.3,408a18.81,18.81,0,0,0-.77,5.43v14.35Z"/>
      <path class="cls-5" d="M239.48,427.76V400.32h4.16v4.16a11.58,11.58,0,0,1,3.08-3.93,5.12,5.12,0,0,1,3-.93,9,9,0,0,1,4.79,1.52l-1.6,4.3a6.64,6.64,0,0,0-3.41-1,4.35,4.35,0,0,0-2.73.92A5.06,5.06,0,0,0,245,407.9a18.79,18.79,0,0,0-.77,5.42V427.7Z"/>
      <path class="cls-5" d="M255.41,414.05q0-7.6,4.16-11.29a12.77,12.77,0,0,1,8.62-3.06,12.31,12.31,0,0,1,9.25,3.72A14.1,14.1,0,0,1,281,413.7a18.19,18.19,0,0,1-1.6,8.32,11.2,11.2,0,0,1-4.62,4.7,13.27,13.27,0,0,1-6.63,1.68,12.32,12.32,0,0,1-9.3-3.68A14.75,14.75,0,0,1,255.41,414.05Zm4.79,0a11.75,11.75,0,0,0,2.29,7.89,7.68,7.68,0,0,0,10.83.71,7.93,7.93,0,0,0,.71-.71,12,12,0,0,0,2.31-8.05,11.3,11.3,0,0,0-2.31-7.7,7.69,7.69,0,0,0-10.85-.69h0a7.27,7.27,0,0,0-.68.68A11.67,11.67,0,0,0,260.2,414.05Z"/>
      <path class="cls-5" d="M286.51,427.76V400.32h4.16v4.16a11.2,11.2,0,0,1,2.95-3.84,5,5,0,0,1,3-.94,9.07,9.07,0,0,1,4.78,1.52l-1.6,4.3a6.74,6.74,0,0,0-3.41-1,4.36,4.36,0,0,0-2.75.91,5,5,0,0,0-1.72,2.54,17.53,17.53,0,0,0-.77,5.43v14.35Z"/>
      <path class="cls-5" d="M204.6,474.79v-4a10,10,0,0,1-8.72,4.68,10.79,10.79,0,0,1-4.51-.93,7.56,7.56,0,0,1-3.14-2.33,9.54,9.54,0,0,1-1.43-3.51,23.45,23.45,0,0,1-.28-4.35v-17h4.64v15.21a27.8,27.8,0,0,0,.29,4.91,5,5,0,0,0,1.86,2.89,5.83,5.83,0,0,0,3.51,1,7.75,7.75,0,0,0,3.93-1.06,6.1,6.1,0,0,0,2.6-2.94,14.68,14.68,0,0,0,.75-5.34V447.35h4.66v27.44Z"/>
      <path class="cls-5" d="M216,474.79V447.35h4.16v3.89a9.92,9.92,0,0,1,8.74-4.51,11.29,11.29,0,0,1,4.55.89,7.35,7.35,0,0,1,3.12,2.33,9.54,9.54,0,0,1,1.46,3.46,27.17,27.17,0,0,1,.25,4.51v16.87h-4.64V458.15a12.45,12.45,0,0,0-.56-4.16,4.46,4.46,0,0,0-1.88-2.29,6.12,6.12,0,0,0-3.24-.83,7.7,7.7,0,0,0-5.14,1.87c-1.43,1.27-2.08,3.66-2.08,7.18v15Z"/>
      <path class="cls-5" d="M263.36,471.4a17.37,17.37,0,0,1-5,3.1,14.43,14.43,0,0,1-5.12.91,10,10,0,0,1-7-2.22,7.29,7.29,0,0,1-2.43-5.64,7.58,7.58,0,0,1,3.33-6.34,10.86,10.86,0,0,1,3.35-1.54,36.45,36.45,0,0,1,4.16-.69,42.77,42.77,0,0,0,8.32-1.6v-1.23a5.1,5.1,0,0,0-1.31-4,7.74,7.74,0,0,0-5.31-1.58,8.3,8.3,0,0,0-4.84,1.14,7,7,0,0,0-2.31,4.16l-4.54-.62a10.9,10.9,0,0,1,2.08-4.7,8.74,8.74,0,0,1,4.16-2.77,18.66,18.66,0,0,1,6.24-1,16.57,16.57,0,0,1,5.72.83,7.61,7.61,0,0,1,3.23,2.08,7.29,7.29,0,0,1,1.45,3.17,26.64,26.64,0,0,1,.23,4.28v6.24a70,70,0,0,0,.29,8.32A11.1,11.1,0,0,0,269.3,475h-4.87A9.88,9.88,0,0,1,263.36,471.4ZM263,461a34.7,34.7,0,0,1-7.59,1.75,17.41,17.41,0,0,0-4.16.93,4,4,0,0,0-1.83,1.52,3.9,3.9,0,0,0-.64,2.2,4,4,0,0,0,1.39,3.1,6,6,0,0,0,4.16,1.25,9.66,9.66,0,0,0,4.79-1.18,7.32,7.32,0,0,0,3.07-3.23,11.16,11.16,0,0,0,.75-4.64Z"/>
      <path class="cls-5" d="M292.88,474.79v-4a10.08,10.08,0,0,1-8.72,4.68,11.2,11.2,0,0,1-4.53-.93,7.5,7.5,0,0,1-3.12-2.33,8.84,8.84,0,0,1-1.44-3.45,23.45,23.45,0,0,1-.29-4.35v-17h4.66v15.21a26.88,26.88,0,0,0,.29,4.91,5,5,0,0,0,1.85,2.89,5.88,5.88,0,0,0,3.52,1,7.75,7.75,0,0,0,3.93-1.06,6.15,6.15,0,0,0,2.6-2.94,14.89,14.89,0,0,0,.75-5.34V447.35H297v27.44Z"/>
      <path class="cls-5" d="M314.47,470.63l.68,4.16a16.58,16.58,0,0,1-3.51.41,8.07,8.07,0,0,1-3.93-.79,4.53,4.53,0,0,1-2-2.08,16.56,16.56,0,0,1-.56-5.47V451.08h-3.41v-3.73h3.41v-6.8l4.62-2.79v9.59h4.68V451h-4.68v16.14a7.79,7.79,0,0,0,.23,2.59,1.87,1.87,0,0,0,.81.9,3,3,0,0,0,1.58.35A16.33,16.33,0,0,0,314.47,470.63Z"/>
      <path class="cls-5" d="M319,474.79V436.91h4.66v13.56a10.4,10.4,0,0,1,8.24-3.77,10.86,10.86,0,0,1,5.3,1.21,7.1,7.1,0,0,1,3.22,3.3,15.27,15.27,0,0,1,1,6.24v17.39h-4.64V457.46a7.13,7.13,0,0,0-1.52-5.07,5.62,5.62,0,0,0-4.28-1.58,7.61,7.61,0,0,0-3.89,1.06,6,6,0,0,0-2.58,2.91,13.17,13.17,0,0,0-.79,5.05v15Z"/>
      <path class="cls-5" d="M346.71,461.06q0-7.6,4.16-11.27a12.69,12.69,0,0,1,8.63-3.09,12.35,12.35,0,0,1,9.32,3.74,14.11,14.11,0,0,1,3.59,10.26,18.31,18.31,0,0,1-1.58,8.32,11.1,11.1,0,0,1-4.63,4.72,13.47,13.47,0,0,1-6.62,1.68,12.29,12.29,0,0,1-9.32-3.7A14.77,14.77,0,0,1,346.71,461.06Zm4.78,0a11.77,11.77,0,0,0,2.29,7.9,7.4,7.4,0,0,0,5.8,2.63,7.29,7.29,0,0,0,5.76-2.65,12,12,0,0,0,2.29-8,11.33,11.33,0,0,0-2.31-7.72,7.66,7.66,0,0,0-10.82-.72h0a7.93,7.93,0,0,0-.71.71,11.6,11.6,0,0,0-2.29,7.86Z"/>
      <path class="cls-5" d="M377.76,474.79V447.35h4.16v4.16a11.2,11.2,0,0,1,2.95-3.84,5,5,0,0,1,3-.94,9.05,9.05,0,0,1,4.78,1.5l-1.6,4.32a6.52,6.52,0,0,0-3.41-1,4.47,4.47,0,0,0-2.73.92,5,5,0,0,0-1.74,2.54,18.81,18.81,0,0,0-.77,5.43v14.37Z"/>
      <path class="cls-5" d="M395.5,442.26v-5.35h4.66v5.35Zm0,32.53V447.35h4.66v27.44Z"/>
      <path class="cls-5" d="M404.8,474.79V471l17.47-20c-2.08,0-3.74.15-5.24.15H405.84v-3.77h22.42v3.12l-14.85,17.41-2.87,3.19q3.12-.26,5.87-.25h12.68v4Z"/>
      <path class="cls-5" d="M452.47,466l4.81.6a11.78,11.78,0,0,1-4.16,6.53,12.68,12.68,0,0,1-7.84,2.33,12.45,12.45,0,0,1-9.55-3.72,14.49,14.49,0,0,1-3.54-10.4,15.16,15.16,0,0,1,3.58-10.75A12,12,0,0,1,445,446.7a11.74,11.74,0,0,1,9,3.74A15,15,0,0,1,457.48,461v1.25H437a10.65,10.65,0,0,0,2.56,6.9,7.69,7.69,0,0,0,5.74,2.42,7.13,7.13,0,0,0,4.37-1.36A8.86,8.86,0,0,0,452.47,466Zm-15.26-7.51h15.31a9.35,9.35,0,0,0-1.75-5.2,7.12,7.12,0,0,0-5.76-2.68,7.35,7.35,0,0,0-5.39,2.08A8.45,8.45,0,0,0,437.21,458.44Z"/>
      <path class="cls-5" d="M480.91,474.79v-3.52a8.49,8.49,0,0,1-7.68,4.16,10.87,10.87,0,0,1-6-1.81,12,12,0,0,1-4.26-5.05,17.52,17.52,0,0,1-1.5-7.45,19.43,19.43,0,0,1,1.37-7.46,10.67,10.67,0,0,1,4.16-5.12,11,11,0,0,1,6.12-1.79,9.2,9.2,0,0,1,4.43,1,9.68,9.68,0,0,1,3.14,2.73V436.93h4.64v37.88ZM466.22,461.1a11.8,11.8,0,0,0,2.21,7.86,6.73,6.73,0,0,0,5.24,2.63,6.54,6.54,0,0,0,5.18-2.5,11.47,11.47,0,0,0,2.08-7.61,13,13,0,0,0-2.08-8.32,6.68,6.68,0,0,0-5.35-2.64,6.44,6.44,0,0,0-5.18,2.53A12.49,12.49,0,0,0,466.22,461.1Z"/>
    </g>
  </g>
</svg>
