<svg id="Layer_1" data-name="Layer 1" xmlns="http://www.w3.org/2000/svg" xmlns:xlink="http://www.w3.org/1999/xlink" width="100" height="100" viewBox="0 0 100 100">
  <defs>
    <style>
      .cls-1 {
        fill: none;
      }

      .cls-2 {
        fill: url(#linear-gradient);
      }

      .cls-3 {
        fill: #fff;
      }

      .cls-4 {
        clip-path: url(#clip-path);
      }

      .cls-5 {
        fill: #fd8f1f;
        stroke: #fff;
      }
    </style>
    <linearGradient id="linear-gradient" x1="50" y1="102" x2="50" y2="2" gradientTransform="matrix(1, 0, 0, -1, 0, 102)" gradientUnits="userSpaceOnUse">
      <stop offset="0" stop-color="#13548d"/>
      <stop offset="1" stop-color="#081f33"/>
    </linearGradient>
    <clipPath id="clip-path">
      <rect class="cls-1" x="34.21" y="29.52" width="30.79" height="30.79"/>
    </clipPath>
  </defs>
  <title>order-icon-2</title>
  <path class="cls-2" d="M6.06,0H93.94C97.29,0,100,4.71,100,10.52v79c0,5.81-2.71,10.52-6.06,10.52H6.06C2.71,100,0,95.29,0,89.48v-79C0,4.71,2.71,0,6.06,0Z"/>
  <path class="cls-3" d="M86.35,29.33,50.5,13.11a1.17,1.17,0,0,0-1,0L13.65,29.33a1.07,1.07,0,0,0-.65,1V69.7a1.07,1.07,0,0,0,.65,1L49.5,86.89a1.19,1.19,0,0,0,1,0L86.35,70.67a1.07,1.07,0,0,0,.65-1V30.3A1.07,1.07,0,0,0,86.35,29.33ZM50,15.29l33.18,15-9.62,4.36a.76.76,0,0,0-.19-.12l-33-14.91ZM37.8,20.85l33.13,15-6.78,3.07L31,23.93Zm33.91,17V49.26l-6.34,2.86V40.77ZM84.69,69,51.16,84.19v-37l8-3.61a1.06,1.06,0,0,0,.54-1.45,1.19,1.19,0,0,0-1.54-.51L50,45.32l-3.21-1.45a1.2,1.2,0,0,0-1.54.5,1.05,1.05,0,0,0,.54,1.45l3.05,1.38v37L15.31,69V32L40.85,43.59a1.24,1.24,0,0,0,.5.1,1.16,1.16,0,0,0,1-.61,1.05,1.05,0,0,0-.54-1.45l-25-11.33L28.3,25.11,63,40.83h0v13a1.07,1.07,0,0,0,.54.92,1.22,1.22,0,0,0,.61.17,1.26,1.26,0,0,0,.51-.11l8.65-3.92a1.07,1.07,0,0,0,.65-1V36.86L84.69,32V69Z"/>
  <g class="cls-4">
    <g>
      <circle class="cls-5" cx="49.61" cy="44.91" r="13.47"/>
      <path class="cls-3" d="M48.68,45.55H44.94V43.88h3.74V40h1.69v3.84h3.74v1.67H50.37v3.81H48.68Z"/>
    </g>
  </g>
</svg>
