<svg id="Layer_1" data-name="Layer 1" xmlns="http://www.w3.org/2000/svg" width="800" height="421.92" viewBox="0 0 800 421.92">
  <defs>
    <style>
      .cls-1 {
        fill: #e6e6e6;
      }

      .cls-2 {
        fill: #13548d;
      }

      .cls-3 {
        fill: #fff;
      }

      .cls-4 {
        fill: #00b59a;
      }

      .cls-5 {
        fill: #fd8f1f;
      }

      .cls-6 {
        fill: #ff9f00;
      }

      .cls-7 {
        fill: #ff7816;
      }

      .cls-8 {
        fill: #ffd400;
      }

      .cls-9 {
        fill: #fdbf00;
      }
    </style>
  </defs>
  <title>log in sign up svg</title>
  <circle class="cls-1" cx="150.1" cy="207.34" r="102.24"/>
  <circle class="cls-2" cx="149.71" cy="207.24" r="97.11"/>
  <g>
    <path class="cls-2" d="M266.62,301.08a1.51,1.51,0,0,1-.91-.32,1.46,1.46,0,0,1-.23-2.06c.6-.76,1.19-1.52,1.78-2.29a1.46,1.46,0,1,1,2.33,1.77c-.6.79-1.2,1.57-1.82,2.34A1.44,1.44,0,0,1,266.62,301.08Z"/>
    <path class="cls-2" d="M151.32,357.43a1.47,1.47,0,1,1,0-2.93c1.95,0,3.9-.07,5.84-.16a1.44,1.44,0,0,1,1.53,1.39,1.47,1.47,0,0,1-1.4,1.54c-2,.09-4,.15-5.95.16Zm-20.59-1.24-.19,0c-2-.25-3.95-.55-5.89-.88a1.47,1.47,0,0,1,.5-2.89c1.9.32,3.84.61,5.77.87a1.47,1.47,0,0,1-.19,2.92Zm47-1.31a1.47,1.47,0,0,1-.27-2.91c1.9-.36,3.82-.76,5.72-1.19a1.47,1.47,0,0,1,.65,2.86c-1.93.44-3.89.85-5.83,1.21Zm-72.84-4.45a1.39,1.39,0,0,1-.44-.07c-1.88-.6-3.79-1.25-5.65-1.93a1.46,1.46,0,0,1-.88-1.88,1.48,1.48,0,0,1,1.88-.88c1.83.67,3.69,1.31,5.54,1.89a1.47,1.47,0,0,1-.45,2.87Zm98.35-2.76a1.47,1.47,0,0,1-.53-2.84c1.81-.69,3.63-1.43,5.41-2.2a1.47,1.47,0,0,1,1.16,2.7c-1.81.78-3.67,1.53-5.52,2.24A1.6,1.6,0,0,1,203.21,347.67Zm-122.8-7.55a1.4,1.4,0,0,1-.68-.17c-1.75-.93-3.51-1.91-5.21-2.9A1.47,1.47,0,1,1,76,334.51c1.67,1,3.39,1.94,5.1,2.85a1.46,1.46,0,0,1-.69,2.76ZM227,336a1.47,1.47,0,0,1-.76-2.72c1.67-1,3.31-2.05,4.94-3.12a1.46,1.46,0,1,1,1.61,2.44c-1.64,1.09-3.33,2.16-5,3.19A1.48,1.48,0,0,1,227,336ZM58.2,325.63a1.47,1.47,0,0,1-.9-.31c-1.56-1.22-3.11-2.49-4.61-3.78a1.47,1.47,0,1,1,1.91-2.23q2.22,1.89,4.51,3.71a1.47,1.47,0,0,1,.25,2.06A1.48,1.48,0,0,1,58.2,325.63Zm190.17-5.32a1.47,1.47,0,0,1-1-2.57c1.46-1.28,2.9-2.6,4.31-3.94a1.46,1.46,0,1,1,2,2.12c-1.43,1.36-2.9,2.71-4.39,4A1.44,1.44,0,0,1,248.37,320.31ZM38.92,307.45a1.48,1.48,0,0,1-1.1-.49c-1.31-1.48-2.61-3-3.86-4.53a1.47,1.47,0,1,1,2.27-1.86Q38.08,302.82,40,305a1.46,1.46,0,0,1-1.09,2.44Zm-15.77-21.3a1.47,1.47,0,0,1-1.25-.7c-1-1.69-2-3.42-3-5.14a1.47,1.47,0,0,1,2.57-1.42c.93,1.68,1.92,3.37,2.93,5a1.46,1.46,0,0,1-.48,2A1.51,1.51,0,0,1,23.15,286.15ZM11.43,262.41a1.46,1.46,0,0,1-1.37-.94c-.71-1.84-1.4-3.72-2-5.59a1.47,1.47,0,0,1,2.78-.95c.62,1.83,1.3,3.68,2,5.49a1.47,1.47,0,0,1-1.37,2ZM4.12,236.94a1.47,1.47,0,0,1-1.44-1.19c-.37-1.94-.71-3.92-1-5.87a1.47,1.47,0,0,1,2.9-.44c.29,1.92.62,3.85,1,5.75a1.45,1.45,0,0,1-1.16,1.72A1.33,1.33,0,0,1,4.12,236.94ZM1.48,210.57A1.47,1.47,0,0,1,0,209.12c0-.6,0-1.19,0-1.78,0-1.4,0-2.79.06-4.18a1.47,1.47,0,0,1,2.93.08c0,1.36-.06,2.73-.06,4.1,0,.58,0,1.16,0,1.74a1.47,1.47,0,0,1-1.45,1.49Zm2-26.43-.24,0a1.46,1.46,0,0,1-1.2-1.69c.32-1.94.69-3.91,1.09-5.85a1.47,1.47,0,1,1,2.88.6c-.4,1.9-.76,3.83-1.08,5.74A1.47,1.47,0,0,1,3.5,184.14Zm6.7-25.66a1.41,1.41,0,0,1-.49-.09,1.46,1.46,0,0,1-.89-1.87c.67-1.86,1.39-3.74,2.14-5.58a1.46,1.46,0,1,1,2.71,1.1c-.73,1.81-1.43,3.65-2.09,5.47A1.46,1.46,0,0,1,10.2,158.48Zm11.19-24a1.52,1.52,0,0,1-.74-.2,1.47,1.47,0,0,1-.53-2c1-1.71,2-3.42,3.09-5.1a1.47,1.47,0,0,1,2.48,1.57c-1,1.64-2.06,3.33-3,5A1.49,1.49,0,0,1,21.39,134.43Zm15.28-21.68a1.46,1.46,0,0,1-1.12-2.41c1.28-1.51,2.6-3,3.94-4.47a1.47,1.47,0,1,1,2.16,2q-2,2.15-3.86,4.38A1.47,1.47,0,0,1,36.67,112.75ZM254.46,103a1.48,1.48,0,0,1-1-.42c-1.38-1.37-2.8-2.71-4.23-4a1.47,1.47,0,0,1,2-2.17c1.45,1.32,2.91,2.7,4.32,4.1a1.46,1.46,0,0,1,0,2.07A1.49,1.49,0,0,1,254.46,103ZM55.53,94.13a1.46,1.46,0,0,1-.93-2.59q2.3-1.91,4.66-3.7A1.47,1.47,0,0,1,61,90.17q-2.32,1.77-4.58,3.63A1.47,1.47,0,0,1,55.53,94.13Zm178.48-8a1.45,1.45,0,0,1-.83-.26c-1.58-1.09-3.23-2.17-4.88-3.2a1.47,1.47,0,0,1,1.56-2.49c1.69,1.06,3.36,2.16,5,3.27a1.47,1.47,0,0,1,.38,2A1.44,1.44,0,0,1,234,86.11Zm-156.63-7a1.47,1.47,0,0,1-.72-2.75c1.72-1,3.49-1.91,5.24-2.81a1.47,1.47,0,0,1,1.33,2.62c-1.71.87-3.44,1.8-5.13,2.75A1.46,1.46,0,0,1,77.38,79.15Zm133.51-6a1.61,1.61,0,0,1-.6-.12c-1.77-.8-3.58-1.57-5.38-2.29A1.47,1.47,0,1,1,206,68c1.83.74,3.68,1.52,5.48,2.33a1.46,1.46,0,0,1-.6,2.8ZM101.54,68.29a1.47,1.47,0,0,1-.48-2.86c1.87-.64,3.78-1.26,5.67-1.83a1.47,1.47,0,0,1,.85,2.81c-1.86.56-3.73,1.16-5.56,1.79A1.36,1.36,0,0,1,101.54,68.29Zm84.28-3.8a1.45,1.45,0,0,1-.35,0c-1.88-.46-3.79-.9-5.7-1.29a1.47,1.47,0,1,1,.59-2.87c1.94.4,3.9.84,5.81,1.31a1.47,1.47,0,0,1-.35,2.89Zm-58.55-2.58A1.46,1.46,0,0,1,127,59c2-.3,4-.57,5.91-.79a1.46,1.46,0,1,1,.33,2.91q-2.91.33-5.79.78Zm32.34-1.44h-.1c-1.93-.12-3.88-.21-5.83-.25a1.47,1.47,0,0,1,.07-2.94c2,0,4,.14,5.95.26a1.47,1.47,0,0,1-.09,2.93Z"/>
    <path class="cls-2" d="M270,120.93a1.47,1.47,0,0,1-1.18-.6c-.57-.78-1.15-1.56-1.74-2.32a1.47,1.47,0,1,1,2.33-1.78q.9,1.17,1.77,2.37a1.46,1.46,0,0,1-1.18,2.33Z"/>
  </g>
  <path class="cls-2" d="M268.42,298.76a1.44,1.44,0,0,1-.88-.3,1.46,1.46,0,0,1-.28-2,147.23,147.23,0,0,0,1.54-176.08,1.47,1.47,0,0,1,2.36-1.74,150.12,150.12,0,0,1-1.57,179.59A1.46,1.46,0,0,1,268.42,298.76Z"/>
  <path class="cls-2" d="M389.09,208.8H298.73a1.47,1.47,0,1,1,0-2.93h90.36a1.47,1.47,0,1,1,0,2.93Z"/>
  <path class="cls-2" d="M269.12,119.76a1.52,1.52,0,0,1-.94-.33,1.47,1.47,0,0,1-.19-2.07l45.54-54.95a1.5,1.5,0,0,1,1.13-.53H357a1.47,1.47,0,0,1,0,2.93H315.35l-45.1,54.42A1.46,1.46,0,0,1,269.12,119.76Z"/>
  <path class="cls-2" d="M357,353.81H314.66a1.5,1.5,0,0,1-1.13-.53L268,298.33a1.47,1.47,0,1,1,2.26-1.87l45.1,54.42H357a1.47,1.47,0,0,1,0,2.93Z"/>
  <path class="cls-2" d="M711.62,114.45H406.36a53,53,0,1,1,0-106H711.62a53,53,0,1,1,0,106ZM406.36,13.69a47.74,47.74,0,0,0,0,95.48H711.62a47.74,47.74,0,1,0,0-95.48Z"/>
  <circle class="cls-3" cx="408.6" cy="62.36" r="41.84"/>
  <circle class="cls-2" cx="408.6" cy="62.36" r="32.39"/>
  <path class="cls-4" d="M712.62,406.42H407.36a53,53,0,0,1,0-106H712.62a53,53,0,0,1,0,106ZM407.36,305.66a47.74,47.74,0,0,0,0,95.48H712.62a47.74,47.74,0,1,0,0-95.48Z"/>
  <circle class="cls-3" cx="408.6" cy="353.33" r="41.84"/>
  <circle class="cls-4" cx="408.6" cy="353.33" r="32.39"/>
  <path class="cls-5" d="M747,258.44H441.72a53,53,0,0,1,0-106H747a53,53,0,0,1,0,106ZM441.72,157.68a47.74,47.74,0,0,0,0,95.48H747a47.74,47.74,0,1,0,0-95.48Z"/>
  <circle class="cls-3" cx="442.96" cy="205.35" r="41.84" transform="translate(-15.46 373.37) rotate(-45)"/>
  <circle class="cls-5" cx="442.96" cy="205.35" r="32.39"/>
  <path class="cls-2" d="M280,118.32a10,10,0,1,1-10-10A10,10,0,0,1,280,118.32Z"/>
  <path class="cls-5" d="M308.64,208.1a10,10,0,1,1-10-10A10,10,0,0,1,308.64,208.1Z"/>
  <path class="cls-4" d="M278.08,297.06a10,10,0,1,1-10-10A10,10,0,0,1,278.08,297.06Z"/>
  <g>
    <path class="cls-3" d="M64.82,201.08,62,179.35h2.61l1.74,16.16,2.29-16.16H71l2.32,16.16,1.51-16.16h2.61l-2.54,21.73H72.06L69.9,185.71l-2.26,15.37Z"/>
    <path class="cls-3" d="M83.44,201.31a4.68,4.68,0,0,1-2.21-.46,3.13,3.13,0,0,1-1.3-1.3,6.12,6.12,0,0,1-.61-2,19.05,19.05,0,0,1-.17-2.63v-6.7a11.51,11.51,0,0,1,.22-2.37,5.56,5.56,0,0,1,.72-1.86,3.27,3.27,0,0,1,1.36-1.19,4.75,4.75,0,0,1,2.11-.42,4.56,4.56,0,0,1,2.1.42A3,3,0,0,1,86.91,184a5.33,5.33,0,0,1,.61,1.88,15,15,0,0,1,.18,2.43V192H82v3.67a10.52,10.52,0,0,0,.22,2.46,1.14,1.14,0,0,0,1.25.87,1.09,1.09,0,0,0,1-.41,2.28,2.28,0,0,0,.35-1.16c0-.5.07-1.08.07-1.74v-1.55h2.8V195a20.87,20.87,0,0,1-.15,2.63,6.05,6.05,0,0,1-.57,2,2.92,2.92,0,0,1-1.27,1.26A4.85,4.85,0,0,1,83.44,201.31ZM82,190.17h2.86v-2.38a16.64,16.64,0,0,0-.08-1.73,2.27,2.27,0,0,0-.36-1.07,1,1,0,0,0-.87-.36,1.24,1.24,0,0,0-1,.42,2.31,2.31,0,0,0-.42,1.15,12,12,0,0,0-.1,1.68Z"/>
    <path class="cls-3" d="M90.65,201.08V179.14h2.83v21.94Z"/>
    <path class="cls-3" d="M101.12,201.31a4.82,4.82,0,0,1-2.24-.45,3.17,3.17,0,0,1-1.34-1.3,5.84,5.84,0,0,1-.64-2,17.94,17.94,0,0,1-.17-2.66v-6.12a14.73,14.73,0,0,1,.34-3.38,4,4,0,0,1,1.29-2.24,4.32,4.32,0,0,1,2.81-.79,4.5,4.5,0,0,1,2,.38,3,3,0,0,1,1.23,1.13,5.13,5.13,0,0,1,.62,1.78,13.34,13.34,0,0,1,.18,2.3v1.59h-2.77v-1.84a14.77,14.77,0,0,0-.07-1.61,1.94,1.94,0,0,0-.35-1,1.07,1.07,0,0,0-.9-.34,1.25,1.25,0,0,0-1,.36,2.17,2.17,0,0,0-.44,1,9.36,9.36,0,0,0-.12,1.61v8.08a11.73,11.73,0,0,0,.1,1.71,2,2,0,0,0,.41,1,1.2,1.2,0,0,0,1,.35,1.11,1.11,0,0,0,.92-.37,2.16,2.16,0,0,0,.38-1.06,12.94,12.94,0,0,0,.08-1.63v-2h2.77v1.48a16.17,16.17,0,0,1-.17,2.41,5.55,5.55,0,0,1-.62,1.88,3,3,0,0,1-1.25,1.21A4.39,4.39,0,0,1,101.12,201.31Z"/>
    <path class="cls-3" d="M112.23,201.31a4.73,4.73,0,0,1-2.17-.44,3.1,3.1,0,0,1-1.32-1.24,5.79,5.79,0,0,1-.67-2,15.77,15.77,0,0,1-.19-2.6v-6.71a11.69,11.69,0,0,1,.38-3.1,4.11,4.11,0,0,1,1.34-2.14,4,4,0,0,1,2.63-.77,4.43,4.43,0,0,1,2.11.44,3.31,3.31,0,0,1,1.32,1.25,5.68,5.68,0,0,1,.68,1.91,13.82,13.82,0,0,1,.2,2.41v6.71a16.8,16.8,0,0,1-.18,2.57,5.44,5.44,0,0,1-.64,2,3.14,3.14,0,0,1-1.31,1.27A4.75,4.75,0,0,1,112.23,201.31Zm0-2.34a1.11,1.11,0,0,0,.94-.4,2.46,2.46,0,0,0,.41-1.12,11.5,11.5,0,0,0,.1-1.65v-8a10.09,10.09,0,0,0-.11-1.66,2.23,2.23,0,0,0-.42-1.09,1.12,1.12,0,0,0-.92-.39,1.15,1.15,0,0,0-1,.39,2.14,2.14,0,0,0-.43,1.09,11.46,11.46,0,0,0-.1,1.66v8a11.5,11.5,0,0,0,.1,1.65,2.25,2.25,0,0,0,.43,1.12A1.13,1.13,0,0,0,112.23,199Z"/>
    <path class="cls-3" d="M119.7,201.08V182.56h2.84v2a3.1,3.1,0,0,1,1-1.56,2.79,2.79,0,0,1,1.93-.64,2.94,2.94,0,0,1,1.61.44,2.76,2.76,0,0,1,1.06,1.44,3.62,3.62,0,0,1,1.24-1.36,3.35,3.35,0,0,1,1.89-.52,2.72,2.72,0,0,1,2.38,1.12,5.66,5.66,0,0,1,.76,3.21v14.43h-2.84v-14.5a2.16,2.16,0,0,0-.38-1.44,1.27,1.27,0,0,0-1-.42,1.65,1.65,0,0,0-1.29.46,2.25,2.25,0,0,0-.42,1.52v14.38h-2.85V186.56a2.3,2.3,0,0,0-.34-1.38,1.17,1.17,0,0,0-1-.46,1.48,1.48,0,0,0-1.31.61,2.6,2.6,0,0,0-.43,1.55v14.2Z"/>
    <path class="cls-3" d="M141.78,201.31a4.67,4.67,0,0,1-2.2-.46,3.13,3.13,0,0,1-1.3-1.3,6.12,6.12,0,0,1-.61-2,17.61,17.61,0,0,1-.17-2.63v-6.7a11.51,11.51,0,0,1,.22-2.37,5.56,5.56,0,0,1,.72-1.86,3.27,3.27,0,0,1,1.36-1.19,4.72,4.72,0,0,1,2.11-.42,4.62,4.62,0,0,1,2.1.42,3,3,0,0,1,1.25,1.21,5.55,5.55,0,0,1,.61,1.88,15,15,0,0,1,.18,2.43V192h-5.69v3.67a10.43,10.43,0,0,0,.23,2.46,1.13,1.13,0,0,0,1.24.87,1.09,1.09,0,0,0,1-.41,2.38,2.38,0,0,0,.35-1.16c0-.5.07-1.08.07-1.74v-1.55H146V195a20.87,20.87,0,0,1-.15,2.63,6.05,6.05,0,0,1-.57,2,2.92,2.92,0,0,1-1.27,1.26A4.9,4.9,0,0,1,141.78,201.31Zm-1.43-11.14h2.86v-2.38a14,14,0,0,0-.09-1.73,2.17,2.17,0,0,0-.35-1.07,1,1,0,0,0-.87-.36,1.22,1.22,0,0,0-1,.42,2.41,2.41,0,0,0-.43,1.15,14,14,0,0,0-.09,1.68Z"/>
    <path class="cls-3" d="M155.43,201.08v-19.3H153v-2.43h7.65v2.43h-2.32v19.3Z"/>
    <path class="cls-3" d="M166.07,201.31a4.73,4.73,0,0,1-2.17-.44,3.16,3.16,0,0,1-1.32-1.24,5.79,5.79,0,0,1-.67-2,15.77,15.77,0,0,1-.19-2.6v-6.71a11.69,11.69,0,0,1,.38-3.1,4.11,4.11,0,0,1,1.34-2.14,4,4,0,0,1,2.63-.77,4.43,4.43,0,0,1,2.11.44A3.31,3.31,0,0,1,169.5,184a5.68,5.68,0,0,1,.68,1.91,13.82,13.82,0,0,1,.2,2.41v6.71a18.26,18.26,0,0,1-.17,2.57,5.64,5.64,0,0,1-.65,2,3.14,3.14,0,0,1-1.31,1.27A4.75,4.75,0,0,1,166.07,201.31Zm0-2.34a1.11,1.11,0,0,0,.94-.4,2.46,2.46,0,0,0,.41-1.12,11.5,11.5,0,0,0,.1-1.65v-8a10.09,10.09,0,0,0-.11-1.66,2.23,2.23,0,0,0-.42-1.09,1.12,1.12,0,0,0-.92-.39,1.15,1.15,0,0,0-.95.39,2.14,2.14,0,0,0-.43,1.09,11.46,11.46,0,0,0-.1,1.66v8a11.5,11.5,0,0,0,.1,1.65,2.25,2.25,0,0,0,.43,1.12A1.13,1.13,0,0,0,166.07,199Z"/>
    <path class="cls-3" d="M182.69,201.33a4.56,4.56,0,0,1-2.19-.46,3.29,3.29,0,0,1-1.34-1.3,6.2,6.2,0,0,1-.67-2,17.85,17.85,0,0,1-.18-2.66v-2h2.75V195a9.67,9.67,0,0,0,.32,2.95,1.26,1.26,0,0,0,1.31.89,1.4,1.4,0,0,0,1-.32,1.73,1.73,0,0,0,.43-1,15.07,15.07,0,0,0,.1-1.87,5.22,5.22,0,0,0-.52-2.39,8.17,8.17,0,0,0-1.5-2.05l-1.5-1.51c-.42-.45-.82-.92-1.21-1.43a6.68,6.68,0,0,1-.93-1.71,6,6,0,0,1-.36-2.16,9.69,9.69,0,0,1,.38-2.87,3.4,3.4,0,0,1,1.33-1.83,4.76,4.76,0,0,1,2.65-.64,4.57,4.57,0,0,1,2.14.44,3,3,0,0,1,1.25,1.26,6.13,6.13,0,0,1,.59,1.95,17.81,17.81,0,0,1,.16,2.54v1.31H184v-1.49a15.14,15.14,0,0,0-.11-2,2.46,2.46,0,0,0-.41-1.18,1.1,1.1,0,0,0-.93-.4,1.52,1.52,0,0,0-.94.27,1.58,1.58,0,0,0-.52.84,5.7,5.7,0,0,0-.16,1.45,4.1,4.1,0,0,0,.19,1.32,3.41,3.41,0,0,0,.6,1c.27.31.59.68,1,1.09l1.61,1.72a11.39,11.39,0,0,1,1.95,2.8,7.75,7.75,0,0,1,.74,3.43,11.63,11.63,0,0,1-.38,3.18,3.69,3.69,0,0,1-1.33,2A4.35,4.35,0,0,1,182.69,201.33Z"/>
    <path class="cls-3" d="M192.76,201.2a4.43,4.43,0,0,1-1.8-.29,1.58,1.58,0,0,1-.83-.94,5.14,5.14,0,0,1-.22-1.68v-13.4h-1.62V182.8h1.62v-3.45h2.84v3.45h1.92v2.09h-1.92v13.05a1.3,1.3,0,0,0,.13.67.73.73,0,0,0,.55.3,7.76,7.76,0,0,0,1.28.08v2.21Z"/>
    <path class="cls-3" d="M201.15,201.31a4.7,4.7,0,0,1-2.17-.44,3,3,0,0,1-1.32-1.24,5.79,5.79,0,0,1-.67-2,15.77,15.77,0,0,1-.19-2.6v-6.71a11.69,11.69,0,0,1,.38-3.1,4.11,4.11,0,0,1,1.34-2.14,4,4,0,0,1,2.63-.77,4.46,4.46,0,0,1,2.11.44,3.31,3.31,0,0,1,1.32,1.25,5.68,5.68,0,0,1,.68,1.91,13.82,13.82,0,0,1,.2,2.41v6.71a16.8,16.8,0,0,1-.18,2.57,5.64,5.64,0,0,1-.64,2,3.14,3.14,0,0,1-1.31,1.27A4.75,4.75,0,0,1,201.15,201.31Zm0-2.34a1.08,1.08,0,0,0,.93-.4,2.35,2.35,0,0,0,.42-1.12,11.5,11.5,0,0,0,.1-1.65v-8a10.09,10.09,0,0,0-.11-1.66,2.23,2.23,0,0,0-.42-1.09,1.12,1.12,0,0,0-.92-.39,1.19,1.19,0,0,0-1,.39,2.23,2.23,0,0,0-.42,1.09,11.33,11.33,0,0,0-.11,1.66v8a11.39,11.39,0,0,0,.11,1.65,2.35,2.35,0,0,0,.42,1.12A1.16,1.16,0,0,0,201.15,199Z"/>
    <path class="cls-3" d="M208.66,201.08V182.56h2.85v2.06a3.14,3.14,0,0,1,1.12-1.68,3.26,3.26,0,0,1,2-.6,1.11,1.11,0,0,1,0,.36c0,.24,0,.52,0,.84v1.2a5.77,5.77,0,0,0-1.21.14,3.83,3.83,0,0,0-1.15.45,2.26,2.26,0,0,0-.83.85v14.9Z"/>
    <path class="cls-3" d="M219.73,201.26a2.63,2.63,0,0,1-2.51-1.34,7.61,7.61,0,0,1-.76-3.64v-1.54a5,5,0,0,1,.42-2.2,3.72,3.72,0,0,1,1.2-1.41,9.08,9.08,0,0,1,1.84-1c.71-.3,1.49-.61,2.35-.94v-1.5a16,16,0,0,0-.08-1.75,1.68,1.68,0,0,0-.36-1,1.14,1.14,0,0,0-.9-.31,1.19,1.19,0,0,0-.9.31,1.75,1.75,0,0,0-.41,1,12.82,12.82,0,0,0-.1,1.7v.73H216.7v-.55a12.75,12.75,0,0,1,.18-2.23,4.67,4.67,0,0,1,.64-1.74,3,3,0,0,1,1.31-1.13,5.05,5.05,0,0,1,2.18-.4,4.86,4.86,0,0,1,2,.37,3,3,0,0,1,1.26,1.11,5.06,5.06,0,0,1,.66,1.83,15.37,15.37,0,0,1,.19,2.51v12.92h-2.87v-1.7a2.45,2.45,0,0,1-.46.87,2.65,2.65,0,0,1-.86.72A2.58,2.58,0,0,1,219.73,201.26Zm.89-2.25a1.5,1.5,0,0,0,1.09-.43,2.11,2.11,0,0,0,.56-.88v-6.77c-.58.27-1.06.5-1.44.71a3.64,3.64,0,0,0-.89.68,2,2,0,0,0-.46.85,4.46,4.46,0,0,0-.14,1.24v1.88a5.8,5.8,0,0,0,.27,2.08A1,1,0,0,0,220.62,199Z"/>
    <path class="cls-3" d="M228.38,201.08V179.14h2.84V191.2l3.45-8.64h2.88l-3.77,9.14,4,9.38h-2.92l-3.62-8.93v8.93Z"/>
    <path class="cls-3" d="M76.91,237.79a5.21,5.21,0,0,1-2.45-.51,3.72,3.72,0,0,1-1.5-1.47,6.8,6.8,0,0,1-.75-2.28,19.25,19.25,0,0,1-.21-3v-2.28h3.09v2.46a11.18,11.18,0,0,0,.35,3.31,1.42,1.42,0,0,0,1.47,1,1.59,1.59,0,0,0,1.14-.36,1.86,1.86,0,0,0,.48-1.14,14.83,14.83,0,0,0,.11-2.09,6,6,0,0,0-.57-2.68,9.15,9.15,0,0,0-1.68-2.3l-1.69-1.69a19.31,19.31,0,0,1-1.35-1.6,7.64,7.64,0,0,1-1-1.91,6.81,6.81,0,0,1-.4-2.43,10.41,10.41,0,0,1,.43-3.2,3.77,3.77,0,0,1,1.48-2.06,5.34,5.34,0,0,1,3-.71,5,5,0,0,1,2.39.49,3.37,3.37,0,0,1,1.4,1.4,6.72,6.72,0,0,1,.66,2.19,20.51,20.51,0,0,1,.18,2.85v1.47h-3v-1.68a16.67,16.67,0,0,0-.12-2.2,2.8,2.8,0,0,0-.46-1.33,1.25,1.25,0,0,0-1-.44,1.66,1.66,0,0,0-1.05.31,1.68,1.68,0,0,0-.58.93,6.07,6.07,0,0,0-.18,1.63,4.51,4.51,0,0,0,.21,1.48,3.83,3.83,0,0,0,.67,1.12c.3.36.66.77,1.1,1.23l1.79,1.92a12.48,12.48,0,0,1,2.2,3.14,8.67,8.67,0,0,1,.82,3.85,12.63,12.63,0,0,1-.43,3.55A4,4,0,0,1,79.86,237,4.86,4.86,0,0,1,76.91,237.79Z"/>
    <path class="cls-3" d="M91,237.76a5.21,5.21,0,0,1-2.47-.51,3.52,3.52,0,0,1-1.45-1.46,6.65,6.65,0,0,1-.69-2.28,20.26,20.26,0,0,1-.19-2.94v-7.52a13.56,13.56,0,0,1,.25-2.65,6.28,6.28,0,0,1,.81-2.08A3.66,3.66,0,0,1,88.78,217a5.33,5.33,0,0,1,2.36-.47,5,5,0,0,1,2.35.48,3.4,3.4,0,0,1,1.41,1.35,6.54,6.54,0,0,1,.68,2.11,17.28,17.28,0,0,1,.19,2.71v4.14H89.41v4.11a11.43,11.43,0,0,0,.26,2.75,1.27,1.27,0,0,0,1.39,1,1.22,1.22,0,0,0,1.07-.47,2.53,2.53,0,0,0,.39-1.3c0-.56.07-1.2.07-1.94v-1.75h3.14v1a23.68,23.68,0,0,1-.16,2.94,6.64,6.64,0,0,1-.65,2.24,3.25,3.25,0,0,1-1.41,1.41A5.44,5.44,0,0,1,91,237.76Zm-1.6-12.48h3.19v-2.65a17.76,17.76,0,0,0-.09-1.95,2.41,2.41,0,0,0-.39-1.19,1.15,1.15,0,0,0-1-.41,1.39,1.39,0,0,0-1.15.47,2.6,2.6,0,0,0-.48,1.29,15,15,0,0,0-.1,1.88Z"/>
    <path class="cls-3" d="M101.06,237.51V212.93h3.17v24.58Z"/>
    <path class="cls-3" d="M110.17,237.51V212.93h3.17v24.58Z"/>
    <path class="cls-3" d="M123.76,237.76a5.21,5.21,0,0,1-2.47-.51,3.52,3.52,0,0,1-1.45-1.46,6.65,6.65,0,0,1-.69-2.28,20.26,20.26,0,0,1-.19-2.94v-7.52a12.83,12.83,0,0,1,.25-2.65,6.28,6.28,0,0,1,.81-2.08,3.7,3.7,0,0,1,1.51-1.34,5.41,5.41,0,0,1,2.37-.47,5,5,0,0,1,2.35.48,3.4,3.4,0,0,1,1.41,1.35,6.54,6.54,0,0,1,.68,2.11,17.28,17.28,0,0,1,.19,2.71v4.14h-6.36v4.11a11.43,11.43,0,0,0,.26,2.75,1.27,1.27,0,0,0,1.39,1,1.23,1.23,0,0,0,1.07-.47,2.53,2.53,0,0,0,.39-1.3c0-.56.07-1.2.07-1.94v-1.75h3.14v1a23.68,23.68,0,0,1-.16,2.94,6.64,6.64,0,0,1-.65,2.24,3.25,3.25,0,0,1-1.41,1.41A5.44,5.44,0,0,1,123.76,237.76Zm-1.6-12.48h3.19v-2.65a17.76,17.76,0,0,0-.09-1.95,2.41,2.41,0,0,0-.39-1.19,1.15,1.15,0,0,0-1-.41,1.39,1.39,0,0,0-1.15.47,2.6,2.6,0,0,0-.48,1.29,15,15,0,0,0-.1,1.88Z"/>
    <path class="cls-3" d="M133.82,237.51V216.76H137v2.31a3.59,3.59,0,0,1,1.25-1.88,3.68,3.68,0,0,1,2.28-.68,1.45,1.45,0,0,1,0,.41c0,.27,0,.58,0,.94v1.35a6.42,6.42,0,0,0-1.35.15,4,4,0,0,0-1.29.51,2.62,2.62,0,0,0-.93.94v16.7Z"/>
    <path class="cls-3" d="M157.78,237.8a4.64,4.64,0,0,1-2.88-.84,4.89,4.89,0,0,1-1.62-2.48,13.41,13.41,0,0,1-.51-4V220.19a16.89,16.89,0,0,1,.24-3,6.45,6.45,0,0,1,.81-2.3,3.86,3.86,0,0,1,1.56-1.49,5.3,5.3,0,0,1,2.5-.52,5.09,5.09,0,0,1,2.33.48,3.75,3.75,0,0,1,1.48,1.37,6.35,6.35,0,0,1,.77,2.15,15.55,15.55,0,0,1,.23,2.76v3h-3.13v-2.88a11.15,11.15,0,0,0-.31-3.08,1.32,1.32,0,0,0-1.37-1,1.46,1.46,0,0,0-1.5,1.05,9.15,9.15,0,0,0-.38,3v10.89a17.22,17.22,0,0,0,.15,2.53,2.85,2.85,0,0,0,.54,1.43,1.35,1.35,0,0,0,1.1.45,1.38,1.38,0,0,0,1.42-1.05,11.42,11.42,0,0,0,.35-3.39v-3h3.17v3a14.24,14.24,0,0,1-.47,4,4.43,4.43,0,0,1-1.55,2.42A4.8,4.8,0,0,1,157.78,237.8Z"/>
    <path class="cls-3" d="M172.55,237.76a5.18,5.18,0,0,1-2.47-.51,3.48,3.48,0,0,1-1.46-1.46,7.12,7.12,0,0,1-.69-2.28,21.88,21.88,0,0,1-.18-2.94v-7.52a13.59,13.59,0,0,1,.24-2.65,6.28,6.28,0,0,1,.81-2.08,3.73,3.73,0,0,1,1.52-1.34,5.33,5.33,0,0,1,2.36-.47A5.08,5.08,0,0,1,175,217a3.44,3.44,0,0,1,1.4,1.35,6.09,6.09,0,0,1,.68,2.11,17.21,17.21,0,0,1,.2,2.71v4.14H171v4.11a11.43,11.43,0,0,0,.26,2.75,1.27,1.27,0,0,0,1.39,1,1.2,1.2,0,0,0,1.07-.47,2.63,2.63,0,0,0,.4-1.3c0-.56.07-1.2.07-1.94v-1.75h3.14v1a23.55,23.55,0,0,1-.17,2.94,6.64,6.64,0,0,1-.64,2.24,3.28,3.28,0,0,1-1.42,1.41A5.4,5.4,0,0,1,172.55,237.76Zm-1.61-12.48h3.2v-2.65a17.76,17.76,0,0,0-.09-1.95,2.41,2.41,0,0,0-.4-1.19,1.15,1.15,0,0,0-1-.41,1.39,1.39,0,0,0-1.15.47,2.6,2.6,0,0,0-.48,1.29,17.22,17.22,0,0,0-.1,1.88Z"/>
    <path class="cls-3" d="M182.57,237.51V216.76h3.18V219a3.58,3.58,0,0,1,1.17-1.77,3.26,3.26,0,0,1,2.18-.76,3,3,0,0,1,2.53,1.15,5.5,5.5,0,0,1,.88,3.4v16.46h-3.18V221.16a2.2,2.2,0,0,0-.46-1.53,1.51,1.51,0,0,0-1.2-.5,1.91,1.91,0,0,0-1,.27,1.88,1.88,0,0,0-.68.81,3.43,3.43,0,0,0-.23,1.32v16Z"/>
    <path class="cls-3" d="M201.94,237.63a4.77,4.77,0,0,1-2-.32,1.78,1.78,0,0,1-.94-1,6.09,6.09,0,0,1-.25-1.89v-15h-1.81V217h1.81v-3.88h3.18V217h2.16v2.33h-2.16V234a1.5,1.5,0,0,0,.15.76.85.85,0,0,0,.62.34,9.72,9.72,0,0,0,1.43.08v2.47Z"/>
    <path class="cls-3" d="M213.25,237.76a5.18,5.18,0,0,1-2.47-.51,3.48,3.48,0,0,1-1.46-1.46,7.12,7.12,0,0,1-.69-2.28,21.78,21.78,0,0,1-.19-2.94v-7.52a13.56,13.56,0,0,1,.25-2.65,6.28,6.28,0,0,1,.81-2.08A3.73,3.73,0,0,1,211,217a5.33,5.33,0,0,1,2.36-.47,5.08,5.08,0,0,1,2.36.48,3.44,3.44,0,0,1,1.4,1.35,6.31,6.31,0,0,1,.68,2.11,17.21,17.21,0,0,1,.2,2.71v4.14h-6.37v4.11a11.43,11.43,0,0,0,.26,2.75,1.27,1.27,0,0,0,1.39,1,1.2,1.2,0,0,0,1.07-.47,2.63,2.63,0,0,0,.4-1.3c0-.56.07-1.2.07-1.94v-1.75H218v1a23.55,23.55,0,0,1-.17,2.94,6.64,6.64,0,0,1-.64,2.24,3.28,3.28,0,0,1-1.42,1.41A5.4,5.4,0,0,1,213.25,237.76Zm-1.61-12.48h3.2v-2.65a17.76,17.76,0,0,0-.09-1.95,2.41,2.41,0,0,0-.4-1.19,1.15,1.15,0,0,0-1-.41,1.39,1.39,0,0,0-1.15.47,2.6,2.6,0,0,0-.48,1.29,15,15,0,0,0-.1,1.88Z"/>
    <path class="cls-3" d="M223.31,237.51V216.76h3.19v2.31a3.59,3.59,0,0,1,1.25-1.88,3.7,3.7,0,0,1,2.28-.68,1.2,1.2,0,0,1,0,.41v2.29a6.49,6.49,0,0,0-1.35.15,4.09,4.09,0,0,0-1.28.51,2.57,2.57,0,0,0-.94.94v16.7Z"/>
  </g>
  <path class="cls-3" d="M424.79,46.86A22.39,22.39,0,1,0,393.1,78.47l0,0,.4.35c.36.32.72.65,1.1,1,.2.16.41.32.62.46.36.27.72.54,1.09.79l.78.47c.34.21.69.42,1,.61l.92.45c.34.16.67.32,1,.46s.69.26,1,.38.65.24,1,.34.77.2,1.15.3.63.17,1,.23.89.14,1.34.2c.28,0,.55.1.83.12a20.5,20.5,0,0,0,4.43,0c.28,0,.55-.08.83-.12.44-.06.89-.11,1.33-.2s.64-.16,1-.23.77-.18,1.15-.3.66-.22,1-.34.7-.24,1-.38.68-.31,1-.46.62-.29.92-.45.7-.4,1-.61.52-.3.77-.47.74-.52,1.09-.79l.63-.46c.38-.31.74-.63,1.1-1l.4-.35s0,0,0,0A22.35,22.35,0,0,0,424.79,46.86Zm-3.6,29.94c-.29.26-.59.5-.89.73s-.36.28-.55.41-.58.41-.88.6l-.66.4-.86.48-.78.38c-.26.12-.55.25-.83.36s-.59.22-.88.32-.54.19-.82.27-.65.18-1,.26-.52.13-.78.18-.77.12-1.15.17l-.67.1c-.61.05-1.23.09-1.86.09s-1.25,0-1.87-.09l-.66-.1c-.39,0-.77-.1-1.15-.17s-.52-.12-.78-.18-.66-.16-1-.26l-.81-.27c-.3-.1-.59-.2-.88-.32s-.56-.24-.83-.36l-.78-.38c-.29-.15-.58-.31-.86-.48s-.45-.26-.66-.4-.6-.39-.89-.6l-.54-.41c-.3-.23-.6-.48-.89-.73-.07,0-.14-.12-.21-.18a12.85,12.85,0,0,1,8.72-12,9.46,9.46,0,0,0,8.15,0,12.85,12.85,0,0,1,8.72,12ZM403,52.79a6.4,6.4,0,1,1,8.71,8.71h0a7.07,7.07,0,0,1-1.33.56l-.25.08-.49.1a6,6,0,0,1-.94.09h-.18a5.87,5.87,0,0,1-.94-.09l-.5-.1-.24-.08a6.89,6.89,0,0,1-1.34-.56h0A6.4,6.4,0,0,1,403,52.79Zm21.21,20.66a16.1,16.1,0,0,0-8.56-11,9.59,9.59,0,1,0-14.14,0,16,16,0,0,0-8.56,11,19.19,19.19,0,1,1,31.26,0Z"/>
  <g>
    <path class="cls-3" d="M460,221.49h-.62V202.87a6.05,6.05,0,0,0,2.34-4.9.64.64,0,0,0-.07-.31l-4.36-8.72a1.68,1.68,0,0,0-1.49-1H430.15a1.68,1.68,0,0,0-1.49,1l-4.36,8.72a.64.64,0,0,0-.07.31,6.05,6.05,0,0,0,2.34,4.9v18.62H426a.64.64,0,0,0,0,1.26h34a.64.64,0,0,0,0-1.26ZM425.36,198.6h1.76a.64.64,0,0,0,0-1.26h-1.4l3.89-7.78a.61.61,0,0,1,.54-.35h25.63a.61.61,0,0,1,.54.35l3.89,7.78h-1.4a.64.64,0,0,0,0,1.26h1.76a4,4,0,0,1-7.92,0h3.81a.64.64,0,0,0,0-1.26h-27a.64.64,0,0,0,0,1.26h3.81a4,4,0,0,1-7.92,0Zm26.11,0a4,4,0,0,1-7.92,0Zm-9.09,0a4,4,0,0,1-7.92,0Zm12.94,22.89h-5.94v-2.1h5.94Zm0-3.35h-5.94V206.65h5.94Zm2.94,3.35h-1.84V206a.59.59,0,0,0-.55-.63h-7a.6.6,0,0,0-.55.63v15.47H427.67v-18a4.61,4.61,0,0,0,1.65.32,5.08,5.08,0,0,0,4.55-3.2,4.83,4.83,0,0,0,9.09,0,4.83,4.83,0,0,0,9.1,0,5.08,5.08,0,0,0,4.55,3.2,4.61,4.61,0,0,0,1.65-.32Z"/>
    <path class="cls-3" d="M445.9,205.39H430.06a.59.59,0,0,0-.55.63v12.75a.59.59,0,0,0,.55.62H445.9a.59.59,0,0,0,.55-.62V206A.6.6,0,0,0,445.9,205.39Zm-.55,12.75H430.61V206.65h14.74Z"/>
  </g>
  <g>
    <path class="cls-6" d="M429,353v4.8l-1.65,2h-9.21l-1.13-2V353l2.86-2.61a14,14,0,0,1,3.14.17c2.37.24,5.25.57,5.25.57Z"/>
    <path class="cls-7" d="M429,353v4.8l-1.65,2H423v-9.25c2.37.24,5.25.57,5.25.57Z"/>
    <path class="cls-6" d="M400.07,363.76v3.6s-4.34,2.25-4.57,2.25l-1.42.05-2.18,0-3.81-2.32v-3.6a1.19,1.19,0,0,1,1.2-1.2h9.59A1.18,1.18,0,0,1,400.07,363.76Z"/>
    <path class="cls-6" d="M414.54,362.56v4.8l-1.8,2.54h-7.58l-2.61-2.54v-4.8l2.11-1.27h7.7Z"/>
    <path class="cls-6" d="M429,362.56v4.8l-1.34,1.86h-8.32L417,367.36v-4.8l1.59-1.49H427Z"/>
    <path class="cls-3" d="M424.13,332.44v4.79a1.2,1.2,0,1,1-2.4,0v-1.89l-12.35,12.4a1.1,1.1,0,0,1-.84.36,1.14,1.14,0,0,1-.84-.36l-3.95-3.93L395,352.53a1.16,1.16,0,0,1-1.68,0,1.16,1.16,0,0,1,0-1.68l9.59-9.58a1.16,1.16,0,0,1,1.68,0l4,3.93L420,333.63h-1.9a1.2,1.2,0,1,1,0-2.39h4.8A1.18,1.18,0,0,1,424.13,332.44Z"/>
    <path class="cls-3" d="M424.13,332.44v4.79a1.2,1.2,0,1,1-2.4,0v-1.89l-12.35,12.4a1.1,1.1,0,0,1-.84.36v-2.9L420,333.63h-1.9a1.2,1.2,0,1,1,0-2.39h4.8A1.18,1.18,0,0,1,424.13,332.44Z"/>
    <path class="cls-7" d="M414.54,362.56v4.8l-1.8,2.54h-4.2v-8.61h3.82Z"/>
    <path class="cls-7" d="M427,361.07l2,1.49v4.8l-1.34,1.86H423v-8.15Z"/>
    <path class="cls-7" d="M400.07,363.76v3.6s-4.34,2.25-4.57,2.25l-1.42.05v-7.1h4.8A1.18,1.18,0,0,1,400.07,363.76Z"/>
    <path class="cls-8" d="M429,367.36V371a1.19,1.19,0,0,1-1.2,1.2h-9.59A1.19,1.19,0,0,1,417,371v-3.59Z"/>
    <path class="cls-8" d="M414.54,367.36V371a1.19,1.19,0,0,1-1.2,1.2h-9.59a1.19,1.19,0,0,1-1.2-1.2v-3.59Z"/>
    <path class="cls-8" d="M400.07,367.36V371a1.18,1.18,0,0,1-1.19,1.2h-9.59a1.19,1.19,0,0,1-1.2-1.2v-3.59Z"/>
    <path class="cls-9" d="M408.54,367.36h6V371a1.19,1.19,0,0,1-1.2,1.2h-4.8Z"/>
    <path class="cls-9" d="M423,367.36h6V371a1.19,1.19,0,0,1-1.2,1.2H423Z"/>
    <path class="cls-9" d="M400.07,367.36V371a1.18,1.18,0,0,1-1.19,1.2h-4.8v-4.79Z"/>
    <path class="cls-8" d="M417,357.77h12v4.79H417Z"/>
    <path class="cls-8" d="M414.54,359v3.59h-12V359a1.18,1.18,0,0,1,1.2-1.2h9.59A1.18,1.18,0,0,1,414.54,359Z"/>
    <path class="cls-9" d="M414.54,359v3.59h-6v-4.79h4.8A1.18,1.18,0,0,1,414.54,359Z"/>
    <path class="cls-9" d="M423,357.77h6v4.79h-6Z"/>
    <path class="cls-8" d="M429,348.18V353H417v-4.79a1.19,1.19,0,0,1,1.2-1.2h9.59A1.19,1.19,0,0,1,429,348.18Z"/>
    <path class="cls-9" d="M429,348.18V353h-6v-6h4.79A1.19,1.19,0,0,1,429,348.18Z"/>
  </g>
  <g>
    <path class="cls-2" d="M461.09,71a5.42,5.42,0,0,1-2.6-.55,4,4,0,0,1-1.59-1.55,7.18,7.18,0,0,1-.79-2.42,21.22,21.22,0,0,1-.22-3.15V60.93h3.27v2.6a12,12,0,0,0,.37,3.51,1.5,1.5,0,0,0,1.56,1,1.68,1.68,0,0,0,1.2-.38,2,2,0,0,0,.52-1.22,16.37,16.37,0,0,0,.11-2.21,6.34,6.34,0,0,0-.6-2.83A10,10,0,0,0,460.54,59l-1.79-1.79a21.58,21.58,0,0,1-1.43-1.69,8.08,8.08,0,0,1-1.1-2,7.09,7.09,0,0,1-.43-2.56,11,11,0,0,1,.46-3.4,4,4,0,0,1,1.57-2.18,5.61,5.61,0,0,1,3.14-.75,5.33,5.33,0,0,1,2.54.52A3.6,3.6,0,0,1,465,46.62a7.05,7.05,0,0,1,.7,2.31,21.23,21.23,0,0,1,.19,3V53.5h-3.19V51.73a18.58,18.58,0,0,0-.13-2.34,2.94,2.94,0,0,0-.49-1.4,1.31,1.31,0,0,0-1.1-.47,1.75,1.75,0,0,0-1.11.33,1.82,1.82,0,0,0-.62,1,6.65,6.65,0,0,0-.19,1.72,4.67,4.67,0,0,0,.23,1.56,4.09,4.09,0,0,0,.7,1.2c.32.37.71.81,1.17,1.29l1.9,2A13.24,13.24,0,0,1,465.36,60a9,9,0,0,1,.88,4.07,13.6,13.6,0,0,1-.46,3.76,4.31,4.31,0,0,1-1.57,2.38A5.22,5.22,0,0,1,461.09,71Z"/>
    <path class="cls-2" d="M472.44,70.71V47.82h-2.93V44.93h9.06v2.89h-2.75V70.71Z"/>
    <path class="cls-2" d="M483,70.71V44.93h8.1v2.89h-4.7v8.26h4.45v2.86h-4.45v8.89h4.81v2.88Z"/>
    <path class="cls-2" d="M496.47,70.71V44.93H502a5.71,5.71,0,0,1,2.52.49A3.51,3.51,0,0,1,506,46.87a6.68,6.68,0,0,1,.75,2.31,20.47,20.47,0,0,1,.21,3.09v.45a19.34,19.34,0,0,1-.41,4.3,4.88,4.88,0,0,1-1.49,2.66,4.61,4.61,0,0,1-3.05.9h-2.15V70.71Zm3.4-13h1.64a1.73,1.73,0,0,0,1.33-.48,3,3,0,0,0,.6-1.58,23.29,23.29,0,0,0,.15-3v-.5a12.32,12.32,0,0,0-.37-3.47,1.57,1.57,0,0,0-1.65-1.14h-1.7Z"/>
    <path class="cls-2" d="M511.89,55.43V51.57h3.64v3.86Zm0,11.33V62.89h3.64v3.87Z"/>
    <path class="cls-2" d="M533.09,70.71V49.33a3.25,3.25,0,0,1-1,.74,6.77,6.77,0,0,1-1.36.51,5.22,5.22,0,0,1-1.26.18V48.14a6.71,6.71,0,0,0,1.67-.51,6.1,6.1,0,0,0,1.65-1.06A4.42,4.42,0,0,0,534,44.93h2.52V70.71Z"/>
  </g>
  <g>
    <path class="cls-2" d="M460.23,366a5.39,5.39,0,0,1-2.6-.55,3.89,3.89,0,0,1-1.59-1.55,7.18,7.18,0,0,1-.79-2.42,20,20,0,0,1-.22-3.15v-2.41h3.27v2.6a11.63,11.63,0,0,0,.37,3.51,1.5,1.5,0,0,0,1.56,1,1.68,1.68,0,0,0,1.2-.38,2,2,0,0,0,.51-1.22,16.11,16.11,0,0,0,.12-2.21,6.21,6.21,0,0,0-.61-2.83,9.75,9.75,0,0,0-1.78-2.44l-1.78-1.79a19.61,19.61,0,0,1-1.43-1.69,7.8,7.8,0,0,1-1.11-2,7.31,7.31,0,0,1-.42-2.56,11.34,11.34,0,0,1,.45-3.4,4,4,0,0,1,1.58-2.18,5.58,5.58,0,0,1,3.14-.75,5.29,5.29,0,0,1,2.53.52,3.49,3.49,0,0,1,1.48,1.49,6.82,6.82,0,0,1,.7,2.31,21.23,21.23,0,0,1,.19,3v1.55h-3.19v-1.77a18.83,18.83,0,0,0-.12-2.34,3.05,3.05,0,0,0-.49-1.4,1.32,1.32,0,0,0-1.1-.47,1.8,1.8,0,0,0-1.12.33,1.81,1.81,0,0,0-.61,1,6.24,6.24,0,0,0-.19,1.72,4.43,4.43,0,0,0,.23,1.56,3.88,3.88,0,0,0,.7,1.2c.32.37.7.81,1.16,1.29l1.91,2A13.5,13.5,0,0,1,464.5,355a9.15,9.15,0,0,1,.87,4.07,13.63,13.63,0,0,1-.45,3.76,4.42,4.42,0,0,1-1.57,2.38A5.22,5.22,0,0,1,460.23,366Z"/>
    <path class="cls-2" d="M471.57,365.71V342.82h-2.93v-2.89h9.07v2.89H475v22.89Z"/>
    <path class="cls-2" d="M482.17,365.71V339.93h8.1v2.89h-4.7v8.26H490v2.86h-4.45v8.89h4.8v2.88Z"/>
    <path class="cls-2" d="M495.61,365.71V339.93h5.49a5.74,5.74,0,0,1,2.52.49,3.54,3.54,0,0,1,1.52,1.45,6.68,6.68,0,0,1,.76,2.31,20.47,20.47,0,0,1,.21,3.09v.45a18.7,18.7,0,0,1-.42,4.3,4.83,4.83,0,0,1-1.48,2.66,4.62,4.62,0,0,1-3,.9H499v10.13Zm3.39-13h1.65a1.72,1.72,0,0,0,1.32-.48,2.81,2.81,0,0,0,.6-1.58,23,23,0,0,0,.16-3v-.5a11.89,11.89,0,0,0-.38-3.47,1.57,1.57,0,0,0-1.65-1.14H499Z"/>
    <path class="cls-2" d="M511,350.43v-3.86h3.65v3.86Zm0,11.33v-3.87h3.65v3.87Z"/>
    <path class="cls-2" d="M533.83,366c-1.87,0-3.16-.59-3.89-1.75a10.56,10.56,0,0,1-1.08-5.4v-1.45h3.19v1.43a18.27,18.27,0,0,0,.13,2.49,2.42,2.42,0,0,0,.52,1.36,1.62,1.62,0,0,0,1.21.42,1.52,1.52,0,0,0,1.23-.49,3.11,3.11,0,0,0,.54-1.51,20.68,20.68,0,0,0,.14-2.63,16.42,16.42,0,0,0-.21-3,2.69,2.69,0,0,0-.74-1.58,2.19,2.19,0,0,0-1.53-.48h-.88v-2.65h.85a2.54,2.54,0,0,0,1.51-.39,2.11,2.11,0,0,0,.76-1.34,12.53,12.53,0,0,0,.22-2.68,10.54,10.54,0,0,0-.21-2.43,1.93,1.93,0,0,0-.63-1.13,1.67,1.67,0,0,0-1-.3,1.49,1.49,0,0,0-1,.36,2.25,2.25,0,0,0-.58,1.21,11.8,11.8,0,0,0-.18,2.33v.67H528.9v-.8a9.06,9.06,0,0,1,1.11-5c.74-1.09,2-1.64,3.9-1.64a4.61,4.61,0,0,1,4,1.7,8.64,8.64,0,0,1,1.22,5.06,9.6,9.6,0,0,1-.62,3.61,3.43,3.43,0,0,1-2,2,3.55,3.55,0,0,1,1.56,1.39,6.51,6.51,0,0,1,.85,2.22,13.88,13.88,0,0,1,.27,2.83,10.53,10.53,0,0,1-1.22,5.63A4.54,4.54,0,0,1,533.83,366Z"/>
  </g>
  <g>
    <path class="cls-2" d="M495.26,220a5.39,5.39,0,0,1-2.6-.55,3.89,3.89,0,0,1-1.59-1.55,7,7,0,0,1-.79-2.42,20,20,0,0,1-.22-3.15v-2.41h3.27v2.6a11.63,11.63,0,0,0,.37,3.51,1.5,1.5,0,0,0,1.56,1.05,1.68,1.68,0,0,0,1.2-.38,2.06,2.06,0,0,0,.51-1.22,16.11,16.11,0,0,0,.12-2.21,6.21,6.21,0,0,0-.61-2.83A9.75,9.75,0,0,0,494.7,208l-1.78-1.79a19.61,19.61,0,0,1-1.43-1.69,7.8,7.8,0,0,1-1.11-2,7.31,7.31,0,0,1-.42-2.56,11.34,11.34,0,0,1,.45-3.4,4,4,0,0,1,1.57-2.18,5.64,5.64,0,0,1,3.15-.75,5.29,5.29,0,0,1,2.53.52,3.49,3.49,0,0,1,1.48,1.49,6.82,6.82,0,0,1,.7,2.31,21.23,21.23,0,0,1,.19,3v1.55h-3.19v-1.77a18.83,18.83,0,0,0-.12-2.34,3.05,3.05,0,0,0-.49-1.4,1.32,1.32,0,0,0-1.1-.47,1.8,1.8,0,0,0-1.12.33,1.81,1.81,0,0,0-.61,1,6.24,6.24,0,0,0-.19,1.72,4.43,4.43,0,0,0,.23,1.56,3.88,3.88,0,0,0,.7,1.2c.32.37.7.81,1.16,1.29l1.91,2a13.5,13.5,0,0,1,2.32,3.33,9.15,9.15,0,0,1,.87,4.07,13.63,13.63,0,0,1-.45,3.76,4.42,4.42,0,0,1-1.57,2.38A5.22,5.22,0,0,1,495.26,220Z"/>
    <path class="cls-2" d="M506.6,219.71V196.82h-2.93v-2.89h9.07v2.89H510v22.89Z"/>
    <path class="cls-2" d="M517.2,219.71V193.93h8.1v2.89h-4.7v8.26h4.45v2.86H520.6v8.89h4.8v2.88Z"/>
    <path class="cls-2" d="M530.64,219.71V193.93h5.49a5.77,5.77,0,0,1,2.52.49,3.54,3.54,0,0,1,1.52,1.45,6.68,6.68,0,0,1,.76,2.31,20.47,20.47,0,0,1,.21,3.09v.45a18.7,18.7,0,0,1-.42,4.3,4.82,4.82,0,0,1-1.49,2.66,4.58,4.58,0,0,1-3,.9H534v10.13Zm3.39-13h1.64a1.73,1.73,0,0,0,1.33-.48,2.81,2.81,0,0,0,.6-1.58,23.29,23.29,0,0,0,.15-3v-.5a12,12,0,0,0-.37-3.47,1.57,1.57,0,0,0-1.65-1.14H534Z"/>
    <path class="cls-2" d="M546.05,204.43v-3.86h3.65v3.86Zm0,11.33v-3.87h3.65v3.87Z"/>
    <path class="cls-2" d="M564.78,219.71v-1.48a13.11,13.11,0,0,1,.27-2.71,12.52,12.52,0,0,1,.86-2.62c.4-.9.92-1.9,1.55-3l2.46-4.22a7.67,7.67,0,0,0,.85-2.28,10.64,10.64,0,0,0,.19-1.33c0-.47.06-1,.06-1.48a16,16,0,0,0-.15-2.55,2.14,2.14,0,0,0-.48-1.17,1.25,1.25,0,0,0-.88-.3,1.4,1.4,0,0,0-.91.3,2,2,0,0,0-.56,1.2,15.32,15.32,0,0,0-.18,2.75v3.31h-3.3V202.4a29,29,0,0,1,.33-4.74,5.1,5.1,0,0,1,1.42-3,4.78,4.78,0,0,1,3.38-1,3.87,3.87,0,0,1,2.75.94,5.08,5.08,0,0,1,1.4,2.54,14.89,14.89,0,0,1,.41,3.64,14,14,0,0,1-.19,2.32,11.7,11.7,0,0,1-1.43,4l-2.35,4.21c-.45.82-.83,1.52-1.12,2.12a11.19,11.19,0,0,0-.7,1.75,11,11,0,0,0-.37,1.94h5.73v2.6Z"/>
  </g>
  <path class="cls-5" d="M591,156H749a48,48,0,0,1,48,48v3a48,48,0,0,1-48,48H591a0,0,0,0,1,0,0V156a0,0,0,0,1,0,0Z"/>
  <path class="cls-4" d="M557,304H715a48,48,0,0,1,48,48v3a48,48,0,0,1-48,48H557a0,0,0,0,1,0,0V304A0,0,0,0,1,557,304Z"/>
  <g>
    <path class="cls-3" d="M658.64,200a5.54,5.54,0,0,1-2.6-.54,3.89,3.89,0,0,1-1.59-1.55,7.25,7.25,0,0,1-.79-2.42,21.42,21.42,0,0,1-.22-3.15V190h3.27v2.6a11.55,11.55,0,0,0,.37,3.5,1.5,1.5,0,0,0,1.56,1.06,1.68,1.68,0,0,0,1.2-.38,2,2,0,0,0,.52-1.22,18.21,18.21,0,0,0,.11-2.21,6.41,6.41,0,0,0-.6-2.84,10.16,10.16,0,0,0-1.78-2.43l-1.79-1.79a19.61,19.61,0,0,1-1.43-1.69,8.44,8.44,0,0,1-1.11-2,7.31,7.31,0,0,1-.42-2.56,11.29,11.29,0,0,1,.45-3.4,4,4,0,0,1,1.58-2.18,5.61,5.61,0,0,1,3.14-.75,5.26,5.26,0,0,1,2.53.52,3.47,3.47,0,0,1,1.48,1.48,7,7,0,0,1,.71,2.32,22.81,22.81,0,0,1,.19,3v1.55h-3.2v-1.77a18.83,18.83,0,0,0-.12-2.34,2.9,2.9,0,0,0-.49-1.4,1.31,1.31,0,0,0-1.1-.47,1.81,1.81,0,0,0-1.11.32,1.84,1.84,0,0,0-.62,1,6.76,6.76,0,0,0-.19,1.72,4.69,4.69,0,0,0,.23,1.57,3.88,3.88,0,0,0,.7,1.2q.48.56,1.17,1.29l1.9,2a13.19,13.19,0,0,1,2.32,3.32,9.2,9.2,0,0,1,.87,4.08,13.63,13.63,0,0,1-.45,3.76,4.3,4.3,0,0,1-1.57,2.37A5.15,5.15,0,0,1,658.64,200Z"/>
    <path class="cls-3" d="M669.08,199.74V174h8.11v2.89h-4.71v8.26h4.46V188h-4.46v8.89h4.81v2.89Z"/>
    <path class="cls-3" d="M684,199.74V176.85h-2.93V174h9.07v2.89h-2.75v22.89Z"/>
    <path class="cls-3" d="M708.94,200.05a5.67,5.67,0,0,1-3.13-.76A4.18,4.18,0,0,1,704.1,197a12.15,12.15,0,0,1-.53-3.88V174H707v19.09c0,.84,0,1.56.09,2.18a2.63,2.63,0,0,0,.51,1.42,1.65,1.65,0,0,0,1.35.5,1.67,1.67,0,0,0,1.34-.49,2.68,2.68,0,0,0,.49-1.42c.06-.61.08-1.34.08-2.18V174h3.4v19.16a12.49,12.49,0,0,1-.51,3.88,4.14,4.14,0,0,1-1.68,2.29A5.61,5.61,0,0,1,708.94,200.05Z"/>
    <path class="cls-3" d="M720.52,199.74V174H726a5.57,5.57,0,0,1,2.52.49,3.55,3.55,0,0,1,1.53,1.44,6.81,6.81,0,0,1,.75,2.32,20.47,20.47,0,0,1,.21,3.09v.45a19.34,19.34,0,0,1-.41,4.3,4.81,4.81,0,0,1-1.49,2.65,4.61,4.61,0,0,1-3,.9h-2.15v10.14Zm3.4-13h1.64a1.69,1.69,0,0,0,1.32-.48,2.91,2.91,0,0,0,.61-1.58,23.29,23.29,0,0,0,.15-3v-.5a12,12,0,0,0-.37-3.47,1.57,1.57,0,0,0-1.65-1.14h-1.7Z"/>
    <path class="cls-3" d="M659.67,236a5.48,5.48,0,0,1-2.6-.54,3.89,3.89,0,0,1-1.59-1.55,7,7,0,0,1-.79-2.42,20.13,20.13,0,0,1-.22-3.15V226h3.26v2.61a11.48,11.48,0,0,0,.38,3.5,1.5,1.5,0,0,0,1.56,1.06,1.71,1.71,0,0,0,1.2-.38,2.09,2.09,0,0,0,.51-1.22,16.21,16.21,0,0,0,.12-2.21,6.41,6.41,0,0,0-.61-2.84,10.16,10.16,0,0,0-1.78-2.43l-1.79-1.79a21.58,21.58,0,0,1-1.43-1.69,8.08,8.08,0,0,1-1.1-2,7.1,7.1,0,0,1-.43-2.57,10.94,10.94,0,0,1,.46-3.39,3.94,3.94,0,0,1,1.57-2.18,5.63,5.63,0,0,1,3.14-.75,5.33,5.33,0,0,1,2.54.52,3.52,3.52,0,0,1,1.48,1.48,7.19,7.19,0,0,1,.7,2.32,21.23,21.23,0,0,1,.19,3v1.55h-3.19v-1.77a16.86,16.86,0,0,0-.13-2.34,2.8,2.8,0,0,0-.49-1.4,1.31,1.31,0,0,0-1.1-.47,1.61,1.61,0,0,0-1.72,1.31,6.34,6.34,0,0,0-.19,1.72,4.71,4.71,0,0,0,.22,1.57,4.09,4.09,0,0,0,.7,1.2q.48.56,1.17,1.29l1.9,2a13.49,13.49,0,0,1,2.33,3.32,9.23,9.23,0,0,1,.87,4.08,13.28,13.28,0,0,1-.46,3.76,4.32,4.32,0,0,1-1.56,2.37A5.19,5.19,0,0,1,659.67,236Z"/>
    <path class="cls-3" d="M673.41,235.74V212.85h-2.93V210h9.07v2.89h-2.76v22.89Z"/>
    <path class="cls-3" d="M691.49,236a5.27,5.27,0,0,1-3.15-.85,4.69,4.69,0,0,1-1.71-2.54,14.09,14.09,0,0,1-.53-4.22V216.87a13.2,13.2,0,0,1,.5-3.84,4.83,4.83,0,0,1,1.69-2.51,5.37,5.37,0,0,1,3.26-.88,5.88,5.88,0,0,1,2.57.5,3.87,3.87,0,0,1,1.6,1.45,6.47,6.47,0,0,1,.83,2.28,17,17,0,0,1,.24,3v11.55a15.24,15.24,0,0,1-.5,4.22,4.69,4.69,0,0,1-1.67,2.54A5.18,5.18,0,0,1,691.49,236Zm0-2.94a1.5,1.5,0,0,0,1.2-.46,2.81,2.81,0,0,0,.56-1.47,21.62,21.62,0,0,0,.14-2.71V216.7a10,10,0,0,0-.35-3.09,1.43,1.43,0,0,0-1.49-1,1.59,1.59,0,0,0-1.61,1,8.32,8.32,0,0,0-.43,3.09v11.77a19.42,19.42,0,0,0,.15,2.71,2.58,2.58,0,0,0,.58,1.47A1.6,1.6,0,0,0,691.49,233.09Z"/>
    <path class="cls-3" d="M705.07,235.74V210h5.86a5,5,0,0,1,3,.75,3.61,3.61,0,0,1,1.3,2.25,18.11,18.11,0,0,1,.31,3.68,11.44,11.44,0,0,1-.48,3.7,2.73,2.73,0,0,1-1.88,1.78,2.08,2.08,0,0,1,1.15.58,3.12,3.12,0,0,1,.73,1.4,13,13,0,0,1,.39,2.49c.08,1,.12,2.31.12,3.85v2l0,1.4c0,.46,0,.86.06,1.21a3.28,3.28,0,0,0,.1.67h-3.4a2.82,2.82,0,0,1-.08-.65c0-.37,0-.84-.07-1.43s0-1.25,0-2,0-1.52,0-2.35v-2.51a10.35,10.35,0,0,0-.15-2,1.37,1.37,0,0,0-.6-1,3.17,3.17,0,0,0-1.39-.33l-1.58-.08v12.33Zm3.41-14.9h1.78a1.89,1.89,0,0,0,1.2-.33,2,2,0,0,0,.58-1.26,19,19,0,0,0,.15-2.77v-.16A13.38,13.38,0,0,0,712,214a1.53,1.53,0,0,0-.58-1.08,2.38,2.38,0,0,0-1.31-.28h-1.67Z"/>
    <path class="cls-3" d="M723.65,235.74V210h8.1v2.89h-4.7v8.26h4.45V224h-4.45v8.9h4.8v2.88Z"/>
  </g>
  <g>
    <path class="cls-3" d="M613.13,348a5.54,5.54,0,0,1-2.6-.54,4,4,0,0,1-1.59-1.55,7.18,7.18,0,0,1-.79-2.42,21.42,21.42,0,0,1-.22-3.15V338h3.27v2.6a11.89,11.89,0,0,0,.37,3.5,1.5,1.5,0,0,0,1.56,1.06,1.68,1.68,0,0,0,1.2-.38,2,2,0,0,0,.52-1.22,16.37,16.37,0,0,0,.11-2.21,6.34,6.34,0,0,0-.6-2.83,10,10,0,0,0-1.78-2.44l-1.79-1.79a21.58,21.58,0,0,1-1.43-1.69,8.08,8.08,0,0,1-1.1-2,7.09,7.09,0,0,1-.43-2.56,11,11,0,0,1,.46-3.4,4,4,0,0,1,1.57-2.18,5.61,5.61,0,0,1,3.14-.75,5.33,5.33,0,0,1,2.54.52,3.58,3.58,0,0,1,1.48,1.48,7.19,7.19,0,0,1,.7,2.32,21.23,21.23,0,0,1,.19,3v1.55h-3.19v-1.77a18.58,18.58,0,0,0-.13-2.34,2.9,2.9,0,0,0-.49-1.4,1.31,1.31,0,0,0-1.1-.47,1.81,1.81,0,0,0-1.11.32,1.9,1.9,0,0,0-.62,1,6.76,6.76,0,0,0-.19,1.72,4.69,4.69,0,0,0,.23,1.57,4.09,4.09,0,0,0,.7,1.2q.48.56,1.17,1.29l1.9,2A13.19,13.19,0,0,1,617.4,337a9.23,9.23,0,0,1,.88,4.08,13.6,13.6,0,0,1-.46,3.76,4.25,4.25,0,0,1-1.57,2.37A5.15,5.15,0,0,1,613.13,348Z"/>
    <path class="cls-3" d="M632,347.74V324.85h-2.93V322h9.06v2.89h-2.75v22.89Z"/>
    <path class="cls-3" d="M647.91,347.74l3.8-25.78H656l4.11,25.78h-3.19l-.69-4.79h-4.45l-.63,4.79Zm4.23-7.53h3.7l-1.9-13.34h0Z"/>
    <path class="cls-3" d="M672.34,347.74V322h5.86a5,5,0,0,1,3,.75,3.6,3.6,0,0,1,1.29,2.25,18.11,18.11,0,0,1,.31,3.68,11.76,11.76,0,0,1-.47,3.7,2.75,2.75,0,0,1-1.89,1.78,2,2,0,0,1,1.15.58,3.22,3.22,0,0,1,.74,1.4,12.38,12.38,0,0,1,.38,2.49c.08,1,.12,2.32.12,3.85v.76c0,.37,0,.79,0,1.26s0,.94,0,1.4,0,.87.06,1.21a2.84,2.84,0,0,0,.09.67h-3.4a3.46,3.46,0,0,1-.08-.65c0-.37,0-.84-.06-1.43s0-1.25,0-2,0-1.52,0-2.35v-2.51a11.38,11.38,0,0,0-.14-2,1.39,1.39,0,0,0-.6-1,3.11,3.11,0,0,0-1.4-.34l-1.58-.08v12.33Zm3.42-14.9h1.77a1.92,1.92,0,0,0,1.21-.33,2,2,0,0,0,.57-1.26,19,19,0,0,0,.15-2.77v-.16a14.8,14.8,0,0,0-.14-2.33,1.56,1.56,0,0,0-.58-1.08,2.43,2.43,0,0,0-1.31-.28h-1.67Z"/>
    <path class="cls-3" d="M697.22,347.74V324.85h-2.93V322h9.07v2.89h-2.75v22.89Z"/>
    <path class="cls-3" d="M608.75,383.74V358h8.1v2.89h-4.7v8.26h4.46V372h-4.46v8.9H617v2.88Z"/>
    <path class="cls-3" d="M620.76,383.74l3.8-25.78h4.3L633,383.74h-3.19l-.69-4.79h-4.45l-.63,4.79Zm4.23-7.53h3.71l-1.91-13.34h0Z"/>
    <path class="cls-3" d="M637.7,383.74V358h5.85a5,5,0,0,1,3,.75,3.65,3.65,0,0,1,1.3,2.25,18.94,18.94,0,0,1,.3,3.68,11.76,11.76,0,0,1-.47,3.7,2.75,2.75,0,0,1-1.88,1.78,2.11,2.11,0,0,1,1.15.58,3.22,3.22,0,0,1,.73,1.4,13,13,0,0,1,.39,2.49c.07,1,.11,2.32.11,3.85v.76c0,.37,0,.79,0,1.26s0,.94,0,1.4,0,.87.06,1.21a2.84,2.84,0,0,0,.09.67H645a4.73,4.73,0,0,1-.08-.65c0-.37,0-.84-.06-1.43s0-1.25,0-2,0-1.52,0-2.35v-2.51a10.5,10.5,0,0,0-.14-2,1.39,1.39,0,0,0-.6-1,3.09,3.09,0,0,0-1.39-.34l-1.59-.08v12.33Zm3.41-14.9h1.77a1.92,1.92,0,0,0,1.21-.33,2,2,0,0,0,.57-1.26,19,19,0,0,0,.15-2.77v-.16a13.67,13.67,0,0,0-.14-2.33,1.56,1.56,0,0,0-.58-1.08,2.43,2.43,0,0,0-1.31-.28h-1.67Z"/>
    <path class="cls-3" d="M653.87,383.74V358h2.62l5.76,16.68-.29-7.28V358h3v25.78h-2.46l-5.71-17,.19,6.61v10.38Z"/>
    <path class="cls-3" d="M671.19,383.74V358h3.42v25.78Z"/>
    <path class="cls-3" d="M680.81,383.74V358h2.62l5.76,16.68-.3-7.28V358h3v25.78h-2.46l-5.71-17,.19,6.61v10.38Z"/>
    <path class="cls-3" d="M702.65,384a4.11,4.11,0,0,1-3.56-1.84q-1.3-1.83-1.3-6v-11a15.25,15.25,0,0,1,.28-3.08,6.76,6.76,0,0,1,.91-2.36,4.16,4.16,0,0,1,1.69-1.5,6,6,0,0,1,2.61-.52,5.74,5.74,0,0,1,2.66.53,3.64,3.64,0,0,1,1.54,1.52,7.09,7.09,0,0,1,.72,2.38,24.81,24.81,0,0,1,.18,3.13v1.92h-3.24v-3.08a7.08,7.08,0,0,0-.36-2.64,1.46,1.46,0,0,0-1.47-.83,1.68,1.68,0,0,0-1.65,1,9.22,9.22,0,0,0-.46,3.47v11a13.77,13.77,0,0,0,.39,3.91,1.57,1.57,0,0,0,1.63,1.18,1.65,1.65,0,0,0,1.66-1.19,12.51,12.51,0,0,0,.45-4v-3.42h-2.05V370h5.1v13.75h-1.67l-.48-2.21a3.34,3.34,0,0,1-1.34,1.82A3.88,3.88,0,0,1,702.65,384Z"/>
  </g>
  <path class="cls-2" d="M555,11H713a48,48,0,0,1,48,48v3a48,48,0,0,1-48,48H555a0,0,0,0,1,0,0V11A0,0,0,0,1,555,11Z"/>
  <g>
    <path class="cls-3" d="M615.33,71a5.54,5.54,0,0,1-2.6-.54,3.89,3.89,0,0,1-1.59-1.55,7.18,7.18,0,0,1-.79-2.42,21.42,21.42,0,0,1-.22-3.15V61h3.27v2.6a11.55,11.55,0,0,0,.37,3.5,1.5,1.5,0,0,0,1.56,1.06,1.68,1.68,0,0,0,1.2-.38,2,2,0,0,0,.52-1.22,16.37,16.37,0,0,0,.11-2.21,6.21,6.21,0,0,0-.61-2.83A9.69,9.69,0,0,0,614.78,59L613,57.25a19.61,19.61,0,0,1-1.43-1.69,8.08,8.08,0,0,1-1.1-2A7.09,7.09,0,0,1,610,51a11.29,11.29,0,0,1,.45-3.4,4,4,0,0,1,1.58-2.18,5.58,5.58,0,0,1,3.14-.75,5.26,5.26,0,0,1,2.53.52,3.47,3.47,0,0,1,1.48,1.48,7,7,0,0,1,.71,2.32,22.81,22.81,0,0,1,.19,3v1.55h-3.2V51.76a18.83,18.83,0,0,0-.12-2.34,2.9,2.9,0,0,0-.49-1.4,1.32,1.32,0,0,0-1.1-.47,1.81,1.81,0,0,0-1.11.32,1.84,1.84,0,0,0-.62,1,6.76,6.76,0,0,0-.19,1.72,4.69,4.69,0,0,0,.23,1.57,3.88,3.88,0,0,0,.7,1.2q.48.55,1.17,1.29l1.9,2A13.19,13.19,0,0,1,619.6,60a9.23,9.23,0,0,1,.87,4.08,13.63,13.63,0,0,1-.45,3.76,4.25,4.25,0,0,1-1.57,2.37A5.15,5.15,0,0,1,615.33,71Z"/>
    <path class="cls-3" d="M625.5,70.74V45h3.42V70.74Z"/>
    <path class="cls-3" d="M639.67,71a4.11,4.11,0,0,1-3.56-1.84q-1.3-1.83-1.3-6v-11a15.25,15.25,0,0,1,.28-3.08A7,7,0,0,1,636,46.7a4.16,4.16,0,0,1,1.69-1.5,6,6,0,0,1,2.61-.52,5.74,5.74,0,0,1,2.66.53,3.64,3.64,0,0,1,1.54,1.52,6.67,6.67,0,0,1,.72,2.38,24.81,24.81,0,0,1,.18,3.13v1.92h-3.24V51.08a7.08,7.08,0,0,0-.36-2.64,1.45,1.45,0,0,0-1.47-.83,1.66,1.66,0,0,0-1.64,1,9,9,0,0,0-.47,3.47V63a13.77,13.77,0,0,0,.39,3.91,1.58,1.58,0,0,0,1.64,1.18,1.64,1.64,0,0,0,1.65-1.19,12.44,12.44,0,0,0,.46-4V59.53H640.3V57h5.1V70.74h-1.67l-.48-2.21a3.37,3.37,0,0,1-1.33,1.82A3.94,3.94,0,0,1,639.67,71Z"/>
    <path class="cls-3" d="M651.34,70.74V45H654l5.76,16.68-.29-7.28V45h3V70.74H660l-5.72-17,.19,6.61V70.74Z"/>
    <path class="cls-3" d="M682.35,71.05a5.67,5.67,0,0,1-3.13-.76A4.18,4.18,0,0,1,677.51,68a12.15,12.15,0,0,1-.53-3.88V45h3.42V64.05c0,.84,0,1.56.09,2.18a2.63,2.63,0,0,0,.51,1.42,2.07,2.07,0,0,0,2.69,0,2.6,2.6,0,0,0,.49-1.42c.06-.61.09-1.34.09-2.18V45h3.39V64.12a12.49,12.49,0,0,1-.51,3.88,4.14,4.14,0,0,1-1.68,2.29A5.61,5.61,0,0,1,682.35,71.05Z"/>
    <path class="cls-3" d="M693.63,70.74V45h5.49a5.57,5.57,0,0,1,2.52.49,3.61,3.61,0,0,1,1.53,1.44,6.81,6.81,0,0,1,.75,2.32,20.47,20.47,0,0,1,.21,3.09v.45a18.7,18.7,0,0,1-.42,4.3,4.74,4.74,0,0,1-1.48,2.65,4.61,4.61,0,0,1-3.05.9H697V70.74Zm3.4-13h1.64A1.69,1.69,0,0,0,700,57.3a2.91,2.91,0,0,0,.61-1.58,23.29,23.29,0,0,0,.15-3v-.5a12,12,0,0,0-.37-3.47,1.57,1.57,0,0,0-1.65-1.14H697Z"/>
  </g>
</svg>
